<svg width="81" height="123" viewBox="0 0 81 123" fill="none" xmlns="http://www.w3.org/2000/svg">
<g filter="url(#filter0_d_217_94)">
<path d="M41.9978 56.7584C43.0559 56.3071 43.8716 55.3899 44.1884 54.2677L44.9523 53.6467L45.6792 54.2677C45.3002 56.1767 43.8902 57.715 42.0537 58.2803L41.9978 56.7584Z" fill="#F5B219"/>
<path d="M38.9481 58.2803C37.1114 57.715 35.7016 56.1767 35.3225 54.2677L36.0494 53.6467L36.8133 54.2677C37.1301 55.3899 37.9458 56.3071 39.0039 56.7584L38.9481 58.2803Z" fill="#F5B219"/>
<path d="M38.946 59.6509V57.1664C38.946 56.3071 39.6419 55.6135 40.5009 55.6135C40.9294 55.6135 41.3186 55.7896 41.5983 56.0691C41.8777 56.3485 42.0537 56.7356 42.0537 57.1664V59.6509H38.946Z" fill="#E49D1B"/>
<path d="M33.1573 17L33.7722 17.621V53.0255L33.1573 54.0482C32.8342 53.924 32.5319 53.744 32.2628 53.5162L21.0639 44.0398C20.3496 43.4352 19.9375 42.547 19.9375 41.6131V18.4678C19.9375 17.6583 20.5958 17 21.4074 17H33.1573Z" fill="#EE1F4C"/>
<path d="M61.0627 18.4678V41.6131C61.0627 42.547 60.6509 43.4352 59.9363 44.0398L48.7415 53.5162C48.4724 53.744 48.1701 53.924 47.8449 54.0482L47.0229 53.2325V18.2422L47.8449 17H59.5947C60.4065 17 61.0627 17.6583 61.0627 18.4678Z" fill="#EE1F4C"/>
<path d="M47.8448 17V54.0483C47.4784 54.1932 47.0851 54.2678 46.6855 54.2678H34.3167C33.9171 54.2678 33.5236 54.1932 33.1572 54.0483V17H47.8448Z" fill="#E6F1ED"/>
<path d="M33.157 49.4312V54.0482C32.834 53.924 32.5317 53.744 32.2626 53.5162L24.3225 46.7977C26.4428 47.5886 29.6643 48.6713 33.157 49.4312Z" fill="#C81645"/>
<path d="M47.8448 48.1601V54.0483C47.4784 54.1932 47.0851 54.2678 46.6855 54.2678H34.3167C33.9171 54.2678 33.5236 54.1932 33.1572 54.0483V49.4312C33.3623 49.4748 33.5671 49.5181 33.7722 49.5597C36.0309 50.0214 38.3808 50.334 40.6046 50.334C42.9295 50.334 45.0996 49.6363 47.0228 48.6196C47.3025 48.4747 47.5757 48.3194 47.8448 48.1601Z" fill="#B7DBD2"/>
<path d="M61.0625 18.4678V41.6131C61.0625 42.547 60.6507 43.4352 59.9361 44.0398L48.7413 53.5162C48.4722 53.744 48.1699 53.924 47.8447 54.0482V48.16C50.3397 46.6795 52.3669 44.7272 53.7104 43.2385C54.874 41.9465 55.5116 40.2654 55.5116 38.524V24.0664C55.5116 20.2443 52.4743 17.0869 48.6522 17.0041C48.5261 17.0021 48.3976 17 48.2652 17H59.5945C60.4064 17 61.0625 17.6583 61.0625 18.4678Z" fill="#C81645"/>
<path d="M27.8698 19.0706H22.3989C22.1624 19.0706 21.9705 19.2623 21.9705 19.4988V26.0942C21.9705 26.5558 22.603 26.6927 22.7901 26.2705C23.6691 24.2872 25.3255 21.4695 28.0908 19.8666C28.467 19.6486 28.3045 19.0706 27.8698 19.0706Z" fill="#F364A0"/>
<path d="M64 82.7366C64 95.7154 53.4786 106.237 40.5 106.237C27.5212 106.237 17 95.7154 17 82.7366C17 69.7579 27.5212 59.2368 40.5 59.2368C53.4786 59.2368 64 69.7579 64 82.7366Z" fill="#F7B019"/>
<path d="M63.9994 82.7374C63.9994 95.7146 53.4791 106.237 40.5002 106.237C33.6416 106.237 27.4703 103.3 23.176 98.6125C27.3552 102.435 33.8736 104.946 39.9842 104.946C52.9632 104.946 62.8259 94.9534 62.8259 81.9744C62.8259 75.856 60.1891 69.571 56.3538 65.39C61.0523 69.6884 63.9994 75.8691 63.9994 82.7374Z" fill="#E49D1B"/>
<path d="M40.5 104.147C28.6936 104.147 19.0896 94.5431 19.0896 82.7367C19.0896 70.9305 28.6936 61.3265 40.5 61.3265C52.3062 61.3265 61.9102 70.9305 61.9102 82.7367C61.9102 94.5431 52.3062 104.147 40.5 104.147Z" fill="#E49D1B"/>
<path d="M60.6002 82.7364C60.6002 93.8199 51.5842 102.838 40.5005 102.838C37.357 102.838 34.3802 102.113 31.7291 100.821C28.9622 99.4738 26.5496 97.5111 24.6696 95.1104C23.8113 94.015 23.0641 92.8282 22.4444 91.5663C21.136 88.9002 20.3992 85.9023 20.3992 82.7364C20.3992 80.3883 20.8046 78.1346 21.5471 76.0386C23.7841 69.7249 29.0927 64.8528 35.6661 63.2248C37.2146 62.8407 38.8351 62.6366 40.5005 62.6366C44.2079 62.6366 47.6829 63.6451 50.6675 65.4019C51.9982 66.1866 53.2315 67.1185 54.345 68.1778C56.4442 70.1748 58.1126 72.6191 59.1956 75.3572C60.102 77.6425 60.6002 80.1317 60.6002 82.7364Z" fill="#F7B019"/>
<path d="M50.6675 65.402L22.4444 91.5663C21.136 88.9002 20.3992 85.9024 20.3992 82.7365C20.3992 80.3883 20.8046 78.1347 21.5471 76.0387L35.6661 63.2249C37.2146 62.8408 38.8351 62.6367 40.5005 62.6367C44.2079 62.6367 47.6829 63.6452 50.6675 65.402Z" fill="#FBC035"/>
<path d="M59.1955 75.3573L31.729 100.821C28.9621 99.4738 26.5495 97.5111 24.6694 95.1104L54.3449 68.1778C56.4441 70.1749 58.1124 72.6191 59.1955 75.3573Z" fill="#FBC035"/>
<path d="M40.5003 56.9603C40.5003 57.2462 40.315 57.4778 40.0863 57.4778C39.8576 57.4778 39.6721 57.2462 39.6721 56.9603C39.6721 56.6744 39.8576 56.4426 40.0863 56.4426C40.315 56.4426 40.5003 56.6744 40.5003 56.9603Z" fill="#F5B219"/>
</g>
<g filter="url(#filter1_d_217_94)">
<mask id="path-18-outside-1_217_94" maskUnits="userSpaceOnUse" x="29" y="67" width="18" height="32" fill="black">
<rect fill="white" x="29" y="67" width="18" height="32"/>
<path d="M45.9414 69.3523L44.7859 97.6812L36.1 97.2828L36.5781 78.4367L33.3906 80.6281L30.4023 73.8148L36.8969 68.9539L45.9414 69.3523Z"/>
</mask>
<path d="M45.9414 69.3523L44.7859 97.6812L36.1 97.2828L36.5781 78.4367L33.3906 80.6281L30.4023 73.8148L36.8969 68.9539L45.9414 69.3523Z" fill="white"/>
<path d="M45.9414 69.3523L46.9406 69.3931L46.9812 68.3972L45.9854 68.3533L45.9414 69.3523ZM44.7859 97.6812L44.7401 98.6802L45.7441 98.7263L45.7851 97.722L44.7859 97.6812ZM36.1 97.2828L35.1003 97.2575L35.0755 98.2369L36.0542 98.2818L36.1 97.2828ZM36.5781 78.4367L37.5778 78.4621L37.6275 76.5017L36.0116 77.6127L36.5781 78.4367ZM33.3906 80.6281L32.4748 81.0298L32.9606 82.1373L33.9572 81.4522L33.3906 80.6281ZM30.4023 73.8148L29.8031 73.0143L29.1678 73.4898L29.4866 74.2165L30.4023 73.8148ZM36.8969 68.9539L36.9409 67.9549L36.5838 67.9391L36.2977 68.1533L36.8969 68.9539ZM45.9414 69.3523L44.9422 69.3116L43.7868 97.6405L44.7859 97.6812L45.7851 97.722L46.9406 69.3931L45.9414 69.3523ZM44.7859 97.6812L44.8318 96.6823L36.1458 96.2839L36.1 97.2828L36.0542 98.2818L44.7401 98.6802L44.7859 97.6812ZM36.1 97.2828L37.0997 97.3082L37.5778 78.4621L36.5781 78.4367L35.5784 78.4114L35.1003 97.2575L36.1 97.2828ZM36.5781 78.4367L36.0116 77.6127L32.8241 79.8041L33.3906 80.6281L33.9572 81.4522L37.1447 79.2608L36.5781 78.4367ZM33.3906 80.6281L34.3064 80.2265L31.3181 73.4132L30.4023 73.8148L29.4866 74.2165L32.4748 81.0298L33.3906 80.6281ZM30.4023 73.8148L31.0016 74.6154L37.4961 69.7545L36.8969 68.9539L36.2977 68.1533L29.8031 73.0143L30.4023 73.8148ZM36.8969 68.9539L36.8529 69.9529L45.8974 70.3514L45.9414 69.3523L45.9854 68.3533L36.9409 67.9549L36.8969 68.9539Z" fill="#F7B019" mask="url(#path-18-outside-1_217_94)"/>
</g>
<defs>
<filter id="filter0_d_217_94" x="0.6" y="0.6" width="79.8" height="122.037" filterUnits="userSpaceOnUse" color-interpolation-filters="sRGB">
<feFlood flood-opacity="0" result="BackgroundImageFix"/>
<feColorMatrix in="SourceAlpha" type="matrix" values="0 0 0 0 0 0 0 0 0 0 0 0 0 0 0 0 0 0 127 0" result="hardAlpha"/>
<feOffset/>
<feGaussianBlur stdDeviation="8.2"/>
<feComposite in2="hardAlpha" operator="out"/>
<feColorMatrix type="matrix" values="0 0 0 0 0.984314 0 0 0 0 0.752941 0 0 0 0 0.207843 0 0 0 0.5 0"/>
<feBlend mode="normal" in2="BackgroundImageFix" result="effect1_dropShadow_217_94"/>
<feBlend mode="normal" in="SourceGraphic" in2="effect1_dropShadow_217_94" result="shape"/>
</filter>
<filter id="filter1_d_217_94" x="24.1677" y="62.9391" width="27.8135" height="40.7871" filterUnits="userSpaceOnUse" color-interpolation-filters="sRGB">
<feFlood flood-opacity="0" result="BackgroundImageFix"/>
<feColorMatrix in="SourceAlpha" type="matrix" values="0 0 0 0 0 0 0 0 0 0 0 0 0 0 0 0 0 0 127 0" result="hardAlpha"/>
<feOffset/>
<feGaussianBlur stdDeviation="2.5"/>
<feComposite in2="hardAlpha" operator="out"/>
<feColorMatrix type="matrix" values="0 0 0 0 0 0 0 0 0 0 0 0 0 0 0 0 0 0 0.25 0"/>
<feBlend mode="normal" in2="BackgroundImageFix" result="effect1_dropShadow_217_94"/>
<feBlend mode="normal" in="SourceGraphic" in2="effect1_dropShadow_217_94" result="shape"/>
</filter>
</defs>
</svg>
