<svg width="81" height="123" viewBox="0 0 81 123" fill="none" xmlns="http://www.w3.org/2000/svg">
<g filter="url(#filter0_d_217_95)">
<path d="M41.9978 56.7584C43.0559 56.3071 43.8716 55.3899 44.1884 54.2677L44.9523 53.6467L45.6792 54.2677C45.3002 56.1767 43.8902 57.715 42.0537 58.2803L41.9978 56.7584Z" fill="#949494"/>
<path d="M38.9481 58.2803C37.1114 57.715 35.7016 56.1767 35.3225 54.2677L36.0494 53.6467L36.8133 54.2677C37.1301 55.3899 37.9458 56.3071 39.0039 56.7584L38.9481 58.2803Z" fill="#949494"/>
<path d="M38.946 59.6509V57.1664C38.946 56.3071 39.6419 55.6135 40.5009 55.6135C40.9294 55.6135 41.3186 55.7896 41.5983 56.0691C41.8777 56.3485 42.0537 56.7356 42.0537 57.1664V59.6509H38.946Z" fill="#949494"/>
<path d="M33.1573 17L33.7722 17.621V53.0255L33.1573 54.0482C32.8342 53.924 32.5319 53.744 32.2628 53.5162L21.0639 44.0398C20.3496 43.4352 19.9375 42.547 19.9375 41.6131V18.4678C19.9375 17.6583 20.5958 17 21.4074 17H33.1573Z" fill="#EE1F4C"/>
<path d="M61.0627 18.4678V41.6131C61.0627 42.547 60.6509 43.4352 59.9363 44.0398L48.7415 53.5162C48.4724 53.744 48.1701 53.924 47.8449 54.0482L47.0229 53.2325V18.2422L47.8449 17H59.5947C60.4065 17 61.0627 17.6583 61.0627 18.4678Z" fill="#EE1F4C"/>
<path d="M47.8448 17V54.0483C47.4784 54.1932 47.0851 54.2678 46.6855 54.2678H34.3167C33.9171 54.2678 33.5236 54.1932 33.1572 54.0483V17H47.8448Z" fill="#E6F1ED"/>
<path d="M33.157 49.4312V54.0482C32.834 53.924 32.5317 53.744 32.2626 53.5162L24.3225 46.7977C26.4428 47.5886 29.6643 48.6713 33.157 49.4312Z" fill="#C81645"/>
<path d="M47.8448 48.1601V54.0483C47.4784 54.1932 47.0851 54.2678 46.6855 54.2678H34.3167C33.9171 54.2678 33.5236 54.1932 33.1572 54.0483V49.4312C33.3623 49.4748 33.5671 49.5181 33.7722 49.5597C36.0309 50.0214 38.3808 50.334 40.6046 50.334C42.9295 50.334 45.0996 49.6363 47.0228 48.6196C47.3025 48.4747 47.5757 48.3194 47.8448 48.1601Z" fill="#B7DBD2"/>
<path d="M61.0625 18.4678V41.6131C61.0625 42.547 60.6507 43.4352 59.9361 44.0398L48.7413 53.5162C48.4722 53.744 48.1699 53.924 47.8447 54.0482V48.16C50.3397 46.6795 52.3669 44.7272 53.7104 43.2385C54.874 41.9465 55.5116 40.2654 55.5116 38.524V24.0664C55.5116 20.2443 52.4743 17.0869 48.6522 17.0041C48.5261 17.0021 48.3976 17 48.2652 17H59.5945C60.4064 17 61.0625 17.6583 61.0625 18.4678Z" fill="#C81645"/>
<path d="M27.8698 19.0706H22.3989C22.1624 19.0706 21.9705 19.2623 21.9705 19.4988V26.0942C21.9705 26.5558 22.603 26.6927 22.7901 26.2705C23.6691 24.2872 25.3255 21.4695 28.0908 19.8666C28.467 19.6486 28.3045 19.0706 27.8698 19.0706Z" fill="#F364A0"/>
<path d="M64 82.7366C64 95.7154 53.4786 106.237 40.5 106.237C27.5212 106.237 17 95.7154 17 82.7366C17 69.7579 27.5212 59.2368 40.5 59.2368C53.4786 59.2368 64 69.7579 64 82.7366Z" fill="#C0C0C0"/>
<path d="M63.9994 82.7374C63.9994 95.7146 53.4791 106.237 40.5002 106.237C33.6416 106.237 27.4703 103.3 23.176 98.6125C27.3552 102.435 33.8736 104.946 39.9842 104.946C52.9632 104.946 62.8259 94.9534 62.8259 81.9744C62.8259 75.856 60.1891 69.571 56.3538 65.39C61.0523 69.6884 63.9994 75.8691 63.9994 82.7374Z" fill="#949494"/>
<path d="M40.5 104.147C28.6936 104.147 19.0896 94.5431 19.0896 82.7367C19.0896 70.9305 28.6936 61.3265 40.5 61.3265C52.3062 61.3265 61.9102 70.9305 61.9102 82.7367C61.9102 94.5431 52.3062 104.147 40.5 104.147Z" fill="#949494"/>
<path d="M60.6002 82.7364C60.6002 93.8199 51.5842 102.838 40.5005 102.838C37.357 102.838 34.3802 102.113 31.7291 100.821C28.9622 99.4738 26.5496 97.5111 24.6696 95.1104C23.8113 94.015 23.0641 92.8282 22.4444 91.5663C21.136 88.9002 20.3992 85.9023 20.3992 82.7364C20.3992 80.3883 20.8046 78.1346 21.5471 76.0386C23.7841 69.7249 29.0927 64.8528 35.6661 63.2248C37.2146 62.8407 38.8351 62.6366 40.5005 62.6366C44.2079 62.6366 47.6829 63.6451 50.6675 65.4019C51.9982 66.1866 53.2315 67.1185 54.345 68.1778C56.4442 70.1748 58.1126 72.6191 59.1956 75.3572C60.102 77.6425 60.6002 80.1317 60.6002 82.7364Z" fill="#C0C0C0"/>
<path d="M50.6675 65.402L22.4444 91.5663C21.136 88.9002 20.3992 85.9024 20.3992 82.7365C20.3992 80.3883 20.8046 78.1347 21.5471 76.0387L35.6661 63.2249C37.2146 62.8408 38.8351 62.6367 40.5005 62.6367C44.2079 62.6367 47.6829 63.6452 50.6675 65.402Z" fill="#DDDDDD"/>
<path d="M59.1955 75.3573L31.729 100.821C28.9621 99.4738 26.5495 97.5111 24.6694 95.1104L54.3449 68.1778C56.4441 70.1749 58.1124 72.6191 59.1955 75.3573Z" fill="#DDDDDD"/>
<path d="M40.5003 56.9603C40.5003 57.2462 40.315 57.4778 40.0863 57.4778C39.8576 57.4778 39.6721 57.2462 39.6721 56.9603C39.6721 56.6744 39.8576 56.4426 40.0863 56.4426C40.315 56.4426 40.5003 56.6744 40.5003 56.9603Z" fill="#949494"/>
</g>
<g filter="url(#filter1_d_217_95)">
<mask id="path-18-outside-1_217_95" maskUnits="userSpaceOnUse" x="30" y="67" width="23" height="32" fill="black">
<rect fill="white" x="30" y="67" width="23" height="32"/>
<path d="M51.0813 79.2336C51.0813 80.2961 50.8887 81.3121 50.5035 82.2816C50.1184 83.2379 49.607 84.141 48.9695 84.991C48.3453 85.8277 47.6281 86.6047 46.818 87.3219C46.0211 88.0258 45.2109 88.6633 44.3875 89.2344H50.6828L50.2047 97.5219L31.5578 96.8844V89.6328C32.2617 89.3937 32.9988 89.1082 33.7691 88.7762C34.5527 88.4309 35.3164 88.0391 36.0602 87.6008C36.8172 87.1625 37.5277 86.6711 38.1918 86.1266C38.8691 85.582 39.4602 84.991 39.9648 84.3535C40.4828 83.7027 40.8879 82.9988 41.1801 82.2418C41.4855 81.4848 41.6383 80.668 41.6383 79.7914C41.6383 79.2867 41.5453 78.8418 41.3594 78.4566C41.1867 78.0715 40.941 77.7527 40.6223 77.5004C40.3035 77.2348 39.9316 77.0422 39.5066 76.9227C39.0949 76.7898 38.65 76.7234 38.1719 76.7234C37.7734 76.7234 37.3684 76.7699 36.9566 76.8629C36.5449 76.9426 36.1398 77.0621 35.7414 77.2215C35.343 77.3809 34.9645 77.5801 34.6059 77.8191C34.2605 78.0449 33.9484 78.3039 33.6695 78.5961L31.9164 70.7867C32.4078 70.2953 32.9723 69.8836 33.6098 69.5516C34.2473 69.2195 34.918 68.9539 35.6219 68.7547C36.3258 68.5422 37.043 68.3895 37.7734 68.2965C38.5039 68.2035 39.2211 68.157 39.925 68.157C41.4922 68.157 42.9531 68.4426 44.3078 69.0137C45.6625 69.5715 46.8379 70.3484 47.834 71.3445C48.8434 72.3273 49.6336 73.4961 50.2047 74.8508C50.7891 76.2055 51.0813 77.6664 51.0813 79.2336Z"/>
</mask>
<path d="M51.0813 79.2336C51.0813 80.2961 50.8887 81.3121 50.5035 82.2816C50.1184 83.2379 49.607 84.141 48.9695 84.991C48.3453 85.8277 47.6281 86.6047 46.818 87.3219C46.0211 88.0258 45.2109 88.6633 44.3875 89.2344H50.6828L50.2047 97.5219L31.5578 96.8844V89.6328C32.2617 89.3937 32.9988 89.1082 33.7691 88.7762C34.5527 88.4309 35.3164 88.0391 36.0602 87.6008C36.8172 87.1625 37.5277 86.6711 38.1918 86.1266C38.8691 85.582 39.4602 84.991 39.9648 84.3535C40.4828 83.7027 40.8879 82.9988 41.1801 82.2418C41.4855 81.4848 41.6383 80.668 41.6383 79.7914C41.6383 79.2867 41.5453 78.8418 41.3594 78.4566C41.1867 78.0715 40.941 77.7527 40.6223 77.5004C40.3035 77.2348 39.9316 77.0422 39.5066 76.9227C39.0949 76.7898 38.65 76.7234 38.1719 76.7234C37.7734 76.7234 37.3684 76.7699 36.9566 76.8629C36.5449 76.9426 36.1398 77.0621 35.7414 77.2215C35.343 77.3809 34.9645 77.5801 34.6059 77.8191C34.2605 78.0449 33.9484 78.3039 33.6695 78.5961L31.9164 70.7867C32.4078 70.2953 32.9723 69.8836 33.6098 69.5516C34.2473 69.2195 34.918 68.9539 35.6219 68.7547C36.3258 68.5422 37.043 68.3895 37.7734 68.2965C38.5039 68.2035 39.2211 68.157 39.925 68.157C41.4922 68.157 42.9531 68.4426 44.3078 69.0137C45.6625 69.5715 46.8379 70.3484 47.834 71.3445C48.8434 72.3273 49.6336 73.4961 50.2047 74.8508C50.7891 76.2055 51.0813 77.6664 51.0813 79.2336Z" fill="white"/>
<path d="M50.5035 82.2816L51.4311 82.6553L51.4329 82.6508L50.5035 82.2816ZM48.9695 84.991L48.1695 84.391L48.168 84.3931L48.9695 84.991ZM46.818 87.3219L47.48 88.0713L47.4808 88.0706L46.818 87.3219ZM44.3875 89.2344L43.8176 88.4127L41.1909 90.2344H44.3875V89.2344ZM50.6828 89.2344L51.6812 89.292L51.7422 88.2344H50.6828V89.2344ZM50.2047 97.5219L50.1705 98.5213L51.1468 98.5547L51.203 97.5795L50.2047 97.5219ZM31.5578 96.8844H30.5578V97.8508L31.5236 97.8838L31.5578 96.8844ZM31.5578 89.6328L31.2362 88.6859L30.5578 88.9163V89.6328H31.5578ZM33.7691 88.7762L34.165 89.6945L34.1724 89.6913L33.7691 88.7762ZM36.0602 87.6008L35.5591 86.7353L35.5525 86.7392L36.0602 87.6008ZM38.1918 86.1266L37.5652 85.3471L37.5577 85.3533L38.1918 86.1266ZM39.9648 84.3535L39.1824 83.7308L39.1808 83.7328L39.9648 84.3535ZM41.1801 82.2418L40.2527 81.8676L40.2499 81.8746L40.2472 81.8817L41.1801 82.2418ZM41.3594 78.4566L40.4469 78.8657L40.4527 78.8786L40.4588 78.8914L41.3594 78.4566ZM40.6223 77.5004L39.9821 78.2686L39.9917 78.2766L40.0016 78.2844L40.6223 77.5004ZM39.5066 76.9227L39.1996 77.8744L39.2177 77.8802L39.2359 77.8853L39.5066 76.9227ZM36.9566 76.8629L37.1467 77.8447L37.1618 77.8417L37.1769 77.8383L36.9566 76.8629ZM34.6059 77.8191L35.1531 78.6561L35.1606 78.6512L34.6059 77.8191ZM33.6695 78.5961L32.6938 78.8151L33.103 80.6379L34.3929 79.2866L33.6695 78.5961ZM31.9164 70.7867L31.2093 70.0796L30.8201 70.4688L30.9407 71.0058L31.9164 70.7867ZM35.6219 68.7547L35.8942 69.7169L35.9026 69.7145L35.9109 69.712L35.6219 68.7547ZM44.3078 69.0137L43.9193 69.9352L43.9271 69.9383L44.3078 69.0137ZM47.834 71.3445L47.1268 72.0517L47.1364 72.061L47.834 71.3445ZM50.2047 74.8508L49.2832 75.2393L49.2865 75.2469L50.2047 74.8508ZM51.0813 79.2336H50.0813C50.0813 80.1721 49.9118 81.0626 49.5742 81.9124L50.5035 82.2816L51.4329 82.6508C51.8656 81.5616 52.0813 80.4201 52.0813 79.2336H51.0813ZM50.5035 82.2816L49.5759 81.908C49.2243 82.7811 48.7564 83.6085 48.1695 84.391L48.9695 84.991L49.7695 85.591C50.4576 84.6736 51.0125 83.6946 51.4311 82.6553L50.5035 82.2816ZM48.9695 84.991L48.168 84.3931C47.5862 85.1729 46.9159 85.8997 46.1551 86.5731L46.818 87.3219L47.4808 88.0706C48.3404 87.3097 49.1044 86.4825 49.7711 85.589L48.9695 84.991ZM46.818 87.3219L46.1559 86.5724C45.3866 87.252 44.6071 87.8651 43.8176 88.4127L44.3875 89.2344L44.9574 90.0561C45.8148 89.4614 46.6556 88.7996 47.48 88.0713L46.818 87.3219ZM44.3875 89.2344V90.2344H50.6828V89.2344V88.2344H44.3875V89.2344ZM50.6828 89.2344L49.6845 89.1768L49.2063 97.4643L50.2047 97.5219L51.203 97.5795L51.6812 89.292L50.6828 89.2344ZM50.2047 97.5219L50.2389 96.5225L31.592 95.885L31.5578 96.8844L31.5236 97.8838L50.1705 98.5213L50.2047 97.5219ZM31.5578 96.8844H32.5578V89.6328H31.5578H30.5578V96.8844H31.5578ZM31.5578 89.6328L31.8794 90.5797C32.6114 90.3311 33.3733 90.0357 34.165 89.6945L33.7691 88.7762L33.3733 87.8578C32.6243 88.1807 31.9121 88.4564 31.2362 88.6859L31.5578 89.6328ZM33.7691 88.7762L34.1724 89.6913C34.9921 89.33 35.7906 88.9203 36.5678 88.4623L36.0602 87.6008L35.5525 86.7392C34.8422 87.1578 34.1134 87.5317 33.3659 87.8611L33.7691 88.7762ZM36.0602 87.6008L36.5612 88.4662C37.3641 88.0014 38.1193 87.4793 38.8259 86.8998L38.1918 86.1266L37.5577 85.3533C36.9362 85.8629 36.2703 86.3236 35.5591 86.7354L36.0602 87.6008ZM38.1918 86.1266L38.8184 86.9059C39.55 86.3178 40.1947 85.6742 40.7489 84.9742L39.9648 84.3535L39.1808 83.7328C38.7256 84.3078 38.1883 84.8463 37.5652 85.3472L38.1918 86.1266ZM39.9648 84.3535L40.7473 84.9763C41.3268 84.2481 41.7834 83.456 42.113 82.6019L41.1801 82.2418L40.2472 81.8817C39.9924 82.5417 39.6388 83.1574 39.1824 83.7308L39.9648 84.3535ZM41.1801 82.2418L42.1074 82.616C42.4643 81.7315 42.6383 80.7867 42.6383 79.7914H41.6383H40.6383C40.6383 80.5493 40.5068 81.238 40.2527 81.8676L41.1801 82.2418ZM41.6383 79.7914H42.6383C42.6383 79.1631 42.5221 78.5649 42.2599 78.0219L41.3594 78.4566L40.4588 78.8914C40.5685 79.1187 40.6383 79.4104 40.6383 79.7914H41.6383ZM41.3594 78.4566L42.2719 78.0476C42.0361 77.5216 41.6926 77.0723 41.243 76.7163L40.6223 77.5004L40.0016 78.2844C40.1894 78.4332 40.3373 78.6214 40.4469 78.8657L41.3594 78.4566ZM40.6223 77.5004L41.2625 76.7322C40.8288 76.3708 40.329 76.1151 39.7774 75.96L39.5066 76.9227L39.2359 77.8853C39.5343 77.9692 39.7783 78.0988 39.9821 78.2686L40.6223 77.5004ZM39.5066 76.9227L39.8136 75.9709C39.2929 75.803 38.7434 75.7234 38.1719 75.7234V76.7234V77.7234C38.5567 77.7234 38.897 77.7767 39.1996 77.8744L39.5066 76.9227ZM38.1719 76.7234V75.7234C37.6951 75.7234 37.2161 75.7791 36.7364 75.8874L36.9566 76.8629L37.1769 77.8383C37.5206 77.7607 37.8518 77.7234 38.1719 77.7234V76.7234ZM36.9566 76.8629L36.7666 75.8811C36.2915 75.9731 35.8257 76.1107 35.37 76.293L35.7414 77.2215L36.1128 78.15C36.454 78.0135 36.7984 77.9121 37.1467 77.8447L36.9566 76.8629ZM35.7414 77.2215L35.37 76.293C34.907 76.4782 34.4671 76.7098 34.0512 76.9871L34.6059 77.8191L35.1606 78.6512C35.4618 78.4504 35.7789 78.2835 36.1128 78.15L35.7414 77.2215ZM34.6059 77.8191L34.0586 76.9822C33.6506 77.249 33.2791 77.5568 32.9462 77.9056L33.6695 78.5961L34.3929 79.2866C34.6178 79.051 34.8705 78.8409 35.1531 78.6561L34.6059 77.8191ZM33.6695 78.5961L34.6452 78.3771L32.8921 70.5677L31.9164 70.7867L30.9407 71.0058L32.6938 78.8151L33.6695 78.5961ZM31.9164 70.7867L32.6235 71.4938C33.0404 71.077 33.5215 70.725 34.0717 70.4385L33.6098 69.5516L33.1478 68.6646C32.423 69.0421 31.7752 69.5137 31.2093 70.0796L31.9164 70.7867ZM33.6098 69.5516L34.0717 70.4385C34.6477 70.1385 35.2547 69.8979 35.8942 69.7169L35.6219 68.7547L35.3496 67.7925C34.5812 68.0099 33.8469 68.3006 33.1478 68.6646L33.6098 69.5516ZM35.6219 68.7547L35.9109 69.712C36.5615 69.5156 37.2243 69.3744 37.8997 69.2885L37.7734 68.2965L37.6472 67.3045C36.8617 67.4045 36.09 67.5688 35.3329 67.7974L35.6219 68.7547ZM37.7734 68.2965L37.8997 69.2885C38.5902 69.2006 39.2652 69.157 39.925 69.157V68.157V67.157C39.177 67.157 38.4176 67.2064 37.6472 67.3045L37.7734 68.2965ZM39.925 68.157V69.157C41.3677 69.157 42.6956 69.4192 43.9194 69.9351L44.3078 69.0137L44.6963 68.0922C43.2107 67.4659 41.6167 67.157 39.925 67.157V68.157ZM44.3078 69.0137L43.9271 69.9383C45.1646 70.4479 46.2279 71.1526 47.1269 72.0516L47.834 71.3445L48.5411 70.6374C47.4479 69.5442 46.1604 68.695 44.6886 68.089L44.3078 69.0137ZM47.834 71.3445L47.1364 72.061C48.0458 72.9465 48.7618 74.0023 49.2832 75.2392L50.2047 74.8508L51.1262 74.4623C50.5054 72.9899 49.6409 71.7082 48.5316 70.6281L47.834 71.3445ZM50.2047 74.8508L49.2865 75.2469C49.8136 76.4688 50.0813 77.794 50.0813 79.2336H51.0813H52.0813C52.0813 77.5388 51.7645 75.9421 51.1229 74.4547L50.2047 74.8508Z" fill="#C0C0C0" mask="url(#path-18-outside-1_217_95)"/>
</g>
<defs>
<filter id="filter0_d_217_95" x="0.6" y="0.6" width="79.8" height="122.037" filterUnits="userSpaceOnUse" color-interpolation-filters="sRGB">
<feFlood flood-opacity="0" result="BackgroundImageFix"/>
<feColorMatrix in="SourceAlpha" type="matrix" values="0 0 0 0 0 0 0 0 0 0 0 0 0 0 0 0 0 0 127 0" result="hardAlpha"/>
<feOffset/>
<feGaussianBlur stdDeviation="8.2"/>
<feComposite in2="hardAlpha" operator="out"/>
<feColorMatrix type="matrix" values="0 0 0 0 1 0 0 0 0 1 0 0 0 0 1 0 0 0 0.5 0"/>
<feBlend mode="normal" in2="BackgroundImageFix" result="effect1_dropShadow_217_95"/>
<feBlend mode="normal" in="SourceGraphic" in2="effect1_dropShadow_217_95" result="shape"/>
</filter>
<filter id="filter1_d_217_95" x="25.5579" y="62.157" width="31.5234" height="41.3976" filterUnits="userSpaceOnUse" color-interpolation-filters="sRGB">
<feFlood flood-opacity="0" result="BackgroundImageFix"/>
<feColorMatrix in="SourceAlpha" type="matrix" values="0 0 0 0 0 0 0 0 0 0 0 0 0 0 0 0 0 0 127 0" result="hardAlpha"/>
<feOffset/>
<feGaussianBlur stdDeviation="2.5"/>
<feComposite in2="hardAlpha" operator="out"/>
<feColorMatrix type="matrix" values="0 0 0 0 0 0 0 0 0 0 0 0 0 0 0 0 0 0 0.25 0"/>
<feBlend mode="normal" in2="BackgroundImageFix" result="effect1_dropShadow_217_95"/>
<feBlend mode="normal" in="SourceGraphic" in2="effect1_dropShadow_217_95" result="shape"/>
</filter>
</defs>
</svg>
