<svg width="81" height="123" viewBox="0 0 81 123" fill="none" xmlns="http://www.w3.org/2000/svg">
<g filter="url(#filter0_d_217_117)">
<path d="M41.9978 56.7584C43.0559 56.3071 43.8716 55.3899 44.1884 54.2677L44.9523 53.6467L45.6792 54.2677C45.3002 56.1767 43.8902 57.715 42.0537 58.2803L41.9978 56.7584Z" fill="#AB5600"/>
<path d="M38.9481 58.2803C37.1114 57.715 35.7016 56.1767 35.3225 54.2677L36.0494 53.6467L36.8133 54.2677C37.1301 55.3899 37.9458 56.3071 39.0039 56.7584L38.9481 58.2803Z" fill="#AB5600"/>
<path d="M38.946 59.6509V57.1664C38.946 56.3071 39.6419 55.6135 40.5009 55.6135C40.9294 55.6135 41.3186 55.7896 41.5983 56.0691C41.8777 56.3485 42.0537 56.7356 42.0537 57.1664V59.6509H38.946Z" fill="#AB5600"/>
<path d="M33.1573 17L33.7722 17.621V53.0255L33.1573 54.0482C32.8342 53.924 32.5319 53.744 32.2628 53.5162L21.0639 44.0398C20.3496 43.4352 19.9375 42.547 19.9375 41.6131V18.4678C19.9375 17.6583 20.5958 17 21.4074 17H33.1573Z" fill="#EE1F4C"/>
<path d="M61.0627 18.4678V41.6131C61.0627 42.547 60.6509 43.4352 59.9363 44.0398L48.7415 53.5162C48.4724 53.744 48.1701 53.924 47.8449 54.0482L47.0229 53.2325V18.2422L47.8449 17H59.5947C60.4065 17 61.0627 17.6583 61.0627 18.4678Z" fill="#EE1F4C"/>
<path d="M47.8448 17V54.0483C47.4784 54.1932 47.0851 54.2678 46.6855 54.2678H34.3167C33.9171 54.2678 33.5236 54.1932 33.1572 54.0483V17H47.8448Z" fill="#E6F1ED"/>
<path d="M33.157 49.4312V54.0482C32.834 53.924 32.5317 53.744 32.2626 53.5162L24.3225 46.7977C26.4428 47.5886 29.6643 48.6713 33.157 49.4312Z" fill="#C81645"/>
<path d="M47.8448 48.1601V54.0483C47.4784 54.1932 47.0851 54.2678 46.6855 54.2678H34.3167C33.9171 54.2678 33.5236 54.1932 33.1572 54.0483V49.4312C33.3623 49.4748 33.5671 49.5181 33.7722 49.5597C36.0309 50.0214 38.3808 50.334 40.6046 50.334C42.9295 50.334 45.0996 49.6363 47.0228 48.6196C47.3025 48.4747 47.5757 48.3194 47.8448 48.1601Z" fill="#B7DBD2"/>
<path d="M61.0625 18.4678V41.6131C61.0625 42.547 60.6507 43.4352 59.9361 44.0398L48.7413 53.5162C48.4722 53.744 48.1699 53.924 47.8447 54.0482V48.16C50.3397 46.6795 52.3669 44.7272 53.7104 43.2385C54.874 41.9465 55.5116 40.2654 55.5116 38.524V24.0664C55.5116 20.2443 52.4743 17.0869 48.6522 17.0041C48.5261 17.0021 48.3976 17 48.2652 17H59.5945C60.4064 17 61.0625 17.6583 61.0625 18.4678Z" fill="#C81645"/>
<path d="M27.8698 19.0706H22.3989C22.1624 19.0706 21.9705 19.2623 21.9705 19.4988V26.0942C21.9705 26.5558 22.603 26.6927 22.7901 26.2705C23.6691 24.2872 25.3255 21.4695 28.0908 19.8666C28.467 19.6486 28.3045 19.0706 27.8698 19.0706Z" fill="#F364A0"/>
<path d="M64 82.7366C64 95.7154 53.4786 106.237 40.5 106.237C27.5212 106.237 17 95.7154 17 82.7366C17 69.7579 27.5212 59.2368 40.5 59.2368C53.4786 59.2368 64 69.7579 64 82.7366Z" fill="#C76F17"/>
<path d="M63.9994 82.7374C63.9994 95.7146 53.4791 106.237 40.5002 106.237C33.6416 106.237 27.4703 103.3 23.176 98.6125C27.3552 102.435 33.8736 104.946 39.9842 104.946C52.9632 104.946 62.8259 94.9534 62.8259 81.9744C62.8259 75.856 60.1891 69.571 56.3538 65.39C61.0523 69.6884 63.9994 75.8691 63.9994 82.7374Z" fill="#AB5600"/>
<path d="M40.5 104.147C28.6936 104.147 19.0896 94.5431 19.0896 82.7367C19.0896 70.9305 28.6936 61.3265 40.5 61.3265C52.3062 61.3265 61.9102 70.9305 61.9102 82.7367C61.9102 94.5431 52.3062 104.147 40.5 104.147Z" fill="#AB5600"/>
<path d="M60.6002 82.7364C60.6002 93.8199 51.5842 102.838 40.5005 102.838C37.357 102.838 34.3802 102.113 31.7291 100.821C28.9622 99.4738 26.5496 97.5111 24.6696 95.1104C23.8113 94.015 23.0641 92.8282 22.4444 91.5663C21.136 88.9002 20.3992 85.9023 20.3992 82.7364C20.3992 80.3883 20.8046 78.1346 21.5471 76.0386C23.7841 69.7249 29.0927 64.8528 35.6661 63.2248C37.2146 62.8407 38.8351 62.6366 40.5005 62.6366C44.2079 62.6366 47.6829 63.6451 50.6675 65.4019C51.9982 66.1866 53.2315 67.1185 54.345 68.1778C56.4442 70.1748 58.1126 72.6191 59.1956 75.3572C60.102 77.6425 60.6002 80.1317 60.6002 82.7364Z" fill="#C76F17"/>
<path d="M50.6675 65.402L22.4444 91.5663C21.136 88.9002 20.3992 85.9024 20.3992 82.7365C20.3992 80.3883 20.8046 78.1347 21.5471 76.0387L35.6661 63.2249C37.2146 62.8408 38.8351 62.6367 40.5005 62.6367C44.2079 62.6367 47.6829 63.6452 50.6675 65.402Z" fill="white" fill-opacity="0.22"/>
<path d="M59.1955 75.3573L31.729 100.821C28.9621 99.4738 26.5495 97.5111 24.6694 95.1104L54.3449 68.1778C56.4441 70.1749 58.1124 72.6191 59.1955 75.3573Z" fill="white" fill-opacity="0.22"/>
<path d="M40.5003 56.9603C40.5003 57.2462 40.315 57.4778 40.0863 57.4778C39.8576 57.4778 39.6721 57.2462 39.6721 56.9603C39.6721 56.6744 39.8576 56.4426 40.0863 56.4426C40.315 56.4426 40.5003 56.6744 40.5003 56.9603Z" fill="#AB5600"/>
</g>
<g filter="url(#filter1_d_217_117)">
<mask id="path-18-outside-1_217_117" maskUnits="userSpaceOnUse" x="30" y="66" width="23" height="34" fill="black">
<rect fill="white" x="30" y="66" width="23" height="34"/>
<path d="M51.8383 87.9594C51.8383 89.7258 51.5527 91.2598 50.9816 92.5613C50.4238 93.8496 49.6402 94.9254 48.6309 95.7887C47.6215 96.6387 46.4129 97.2762 45.0051 97.7012C43.6105 98.1129 42.0766 98.3188 40.4031 98.3188C39.6461 98.3188 38.8691 98.2457 38.0723 98.0996C37.2754 97.9535 36.4852 97.7543 35.7016 97.502C34.918 97.2496 34.1543 96.9508 33.4105 96.6055C32.6801 96.2602 31.9961 95.8883 31.3586 95.4898L32.1156 87.4812C32.6203 87.8266 33.1848 88.1586 33.809 88.4773C34.4332 88.7828 35.0773 89.0617 35.7414 89.3141C36.4188 89.5531 37.0961 89.7457 37.7734 89.8918C38.4641 90.0379 39.1281 90.1109 39.7656 90.1109C40.1375 90.1109 40.516 90.0844 40.9012 90.0312C41.2996 89.9648 41.6582 89.852 41.977 89.6926C42.2957 89.5332 42.5547 89.3074 42.7539 89.0152C42.9664 88.723 43.0727 88.3445 43.0727 87.8797C43.0727 87.5875 42.9398 87.3152 42.6742 87.0629C42.4086 86.8105 42.0898 86.598 41.718 86.4254C41.3461 86.2395 40.9609 86.1 40.5625 86.007C40.1641 85.9008 39.832 85.8477 39.5664 85.8477C39.3805 85.8477 39.1547 85.8609 38.8891 85.8875C38.6367 85.9008 38.3777 85.9273 38.1121 85.9672C37.8465 86.007 37.5875 86.0668 37.3352 86.1465C37.0961 86.2129 36.9102 86.2992 36.7773 86.4055L36.8969 80.7078C37.1227 80.7344 37.3352 80.7543 37.5344 80.7676C37.7336 80.7809 37.9461 80.7875 38.1719 80.7875C38.6367 80.7875 39.1414 80.7477 39.6859 80.668C40.2305 80.575 40.7352 80.4223 41.2 80.2098C41.6648 79.984 42.05 79.6785 42.3555 79.2934C42.6742 78.9082 42.8336 78.4102 42.8336 77.7992C42.8336 77.3609 42.7141 77.009 42.475 76.7434C42.2359 76.4645 41.9371 76.252 41.5785 76.1059C41.2332 75.9598 40.8547 75.8602 40.443 75.807C40.0313 75.7539 39.6594 75.7273 39.3273 75.7273C38.2516 75.7273 37.1891 75.9133 36.1398 76.2852C35.1039 76.657 34.1875 77.2016 33.3906 77.9187L31.7172 70.6672C32.9391 69.6711 34.327 68.9141 35.8809 68.3961C37.448 67.8648 39.0219 67.5992 40.6023 67.5992C42.05 67.5992 43.4313 67.8117 44.7461 68.2367C46.0742 68.6484 47.243 69.266 48.2523 70.0895C49.2617 70.8996 50.0652 71.9023 50.6629 73.0977C51.2605 74.293 51.5594 75.6742 51.5594 77.2414C51.5594 77.693 51.493 78.1512 51.3602 78.616C51.2273 79.0809 51.048 79.5324 50.8223 79.9707C50.5965 80.409 50.3309 80.8207 50.0254 81.2059C49.7199 81.5777 49.3945 81.9031 49.0492 82.182C49.607 82.4344 50.0652 82.773 50.4238 83.198C50.7824 83.623 51.068 84.0945 51.2805 84.6125C51.493 85.1305 51.6391 85.6816 51.7188 86.266C51.7984 86.8371 51.8383 87.4016 51.8383 87.9594Z"/>
</mask>
<path d="M51.8383 87.9594C51.8383 89.7258 51.5527 91.2598 50.9816 92.5613C50.4238 93.8496 49.6402 94.9254 48.6309 95.7887C47.6215 96.6387 46.4129 97.2762 45.0051 97.7012C43.6105 98.1129 42.0766 98.3188 40.4031 98.3188C39.6461 98.3188 38.8691 98.2457 38.0723 98.0996C37.2754 97.9535 36.4852 97.7543 35.7016 97.502C34.918 97.2496 34.1543 96.9508 33.4105 96.6055C32.6801 96.2602 31.9961 95.8883 31.3586 95.4898L32.1156 87.4812C32.6203 87.8266 33.1848 88.1586 33.809 88.4773C34.4332 88.7828 35.0773 89.0617 35.7414 89.3141C36.4188 89.5531 37.0961 89.7457 37.7734 89.8918C38.4641 90.0379 39.1281 90.1109 39.7656 90.1109C40.1375 90.1109 40.516 90.0844 40.9012 90.0312C41.2996 89.9648 41.6582 89.852 41.977 89.6926C42.2957 89.5332 42.5547 89.3074 42.7539 89.0152C42.9664 88.723 43.0727 88.3445 43.0727 87.8797C43.0727 87.5875 42.9398 87.3152 42.6742 87.0629C42.4086 86.8105 42.0898 86.598 41.718 86.4254C41.3461 86.2395 40.9609 86.1 40.5625 86.007C40.1641 85.9008 39.832 85.8477 39.5664 85.8477C39.3805 85.8477 39.1547 85.8609 38.8891 85.8875C38.6367 85.9008 38.3777 85.9273 38.1121 85.9672C37.8465 86.007 37.5875 86.0668 37.3352 86.1465C37.0961 86.2129 36.9102 86.2992 36.7773 86.4055L36.8969 80.7078C37.1227 80.7344 37.3352 80.7543 37.5344 80.7676C37.7336 80.7809 37.9461 80.7875 38.1719 80.7875C38.6367 80.7875 39.1414 80.7477 39.6859 80.668C40.2305 80.575 40.7352 80.4223 41.2 80.2098C41.6648 79.984 42.05 79.6785 42.3555 79.2934C42.6742 78.9082 42.8336 78.4102 42.8336 77.7992C42.8336 77.3609 42.7141 77.009 42.475 76.7434C42.2359 76.4645 41.9371 76.252 41.5785 76.1059C41.2332 75.9598 40.8547 75.8602 40.443 75.807C40.0313 75.7539 39.6594 75.7273 39.3273 75.7273C38.2516 75.7273 37.1891 75.9133 36.1398 76.2852C35.1039 76.657 34.1875 77.2016 33.3906 77.9187L31.7172 70.6672C32.9391 69.6711 34.327 68.9141 35.8809 68.3961C37.448 67.8648 39.0219 67.5992 40.6023 67.5992C42.05 67.5992 43.4313 67.8117 44.7461 68.2367C46.0742 68.6484 47.243 69.266 48.2523 70.0895C49.2617 70.8996 50.0652 71.9023 50.6629 73.0977C51.2605 74.293 51.5594 75.6742 51.5594 77.2414C51.5594 77.693 51.493 78.1512 51.3602 78.616C51.2273 79.0809 51.048 79.5324 50.8223 79.9707C50.5965 80.409 50.3309 80.8207 50.0254 81.2059C49.7199 81.5777 49.3945 81.9031 49.0492 82.182C49.607 82.4344 50.0652 82.773 50.4238 83.198C50.7824 83.623 51.068 84.0945 51.2805 84.6125C51.493 85.1305 51.6391 85.6816 51.7188 86.266C51.7984 86.8371 51.8383 87.4016 51.8383 87.9594Z" fill="white"/>
<path d="M50.9816 92.5613L50.0659 92.1595L50.064 92.164L50.9816 92.5613ZM48.6309 95.7887L49.275 96.5536L49.2808 96.5486L48.6309 95.7887ZM45.0051 97.7012L45.2882 98.6603L45.2941 98.6585L45.0051 97.7012ZM33.4105 96.6055L32.9832 97.5096L32.9894 97.5125L33.4105 96.6055ZM31.3586 95.4898L30.363 95.3957L30.3049 96.0105L30.8286 96.3378L31.3586 95.4898ZM32.1156 87.4812L32.6803 86.6559L31.2798 85.6977L31.1201 87.3871L32.1156 87.4812ZM33.809 88.4773L33.3542 89.3679L33.3618 89.3718L33.3694 89.3756L33.809 88.4773ZM35.7414 89.3141L35.3862 90.2488L35.3973 90.2531L35.4086 90.2571L35.7414 89.3141ZM37.7734 89.8918L37.5626 90.8693L37.5665 90.8701L37.7734 89.8918ZM40.9012 90.0312L41.0378 91.0219L41.0517 91.02L41.0656 91.0176L40.9012 90.0312ZM42.7539 89.0152L41.9452 88.4271L41.9362 88.4393L41.9277 88.4519L42.7539 89.0152ZM41.718 86.4254L41.2708 87.3198L41.2837 87.3263L41.2969 87.3324L41.718 86.4254ZM40.5625 86.007L40.3048 86.9733L40.32 86.9773L40.3353 86.9809L40.5625 86.007ZM38.8891 85.8875L38.9416 86.8861L38.9651 86.8849L38.9886 86.8825L38.8891 85.8875ZM37.3352 86.1465L37.6028 87.11L37.6196 87.1053L37.6363 87.1001L37.3352 86.1465ZM36.7773 86.4055L35.7776 86.3845L35.7327 88.5218L37.402 87.1863L36.7773 86.4055ZM36.8969 80.7078L37.0137 79.7147L35.9202 79.586L35.8971 80.6868L36.8969 80.7078ZM39.6859 80.668L39.8307 81.6574L39.8425 81.6557L39.8542 81.6537L39.6859 80.668ZM41.2 80.2098L41.6158 81.1192L41.6264 81.1144L41.6369 81.1093L41.2 80.2098ZM42.3555 79.2934L41.5851 78.6558L41.5784 78.6638L41.572 78.672L42.3555 79.2934ZM42.475 76.7434L41.7157 77.3941L41.7236 77.4033L41.7317 77.4123L42.475 76.7434ZM41.5785 76.1059L41.1888 77.0269L41.2012 77.032L41.5785 76.1059ZM36.1398 76.2852L35.8058 75.3426L35.802 75.344L36.1398 76.2852ZM33.3906 77.9187L32.4162 78.1436L32.7979 79.7976L34.0596 78.662L33.3906 77.9187ZM31.7172 70.6672L31.0853 69.8921L30.6028 70.2855L30.7428 70.892L31.7172 70.6672ZM35.8809 68.3961L36.1971 69.3448L36.2019 69.3432L35.8809 68.3961ZM44.7461 68.2367L44.4385 69.1883L44.45 69.1919L44.7461 68.2367ZM48.2523 70.0895L47.6202 70.8643L47.6264 70.8693L48.2523 70.0895ZM51.3602 78.616L50.3986 78.3413L51.3602 78.616ZM50.0254 81.2059L50.7981 81.8406L50.8036 81.834L50.8089 81.8273L50.0254 81.2059ZM49.0492 82.182L48.4209 81.4041L47.1581 82.4241L48.6371 83.0931L49.0492 82.182ZM51.2805 84.6125L50.3553 84.9921L51.2805 84.6125ZM51.7188 86.266L50.7279 86.4011L50.7283 86.4042L51.7188 86.266ZM51.8383 87.9594H50.8383C50.8383 89.6201 50.5697 91.0114 50.0659 92.1595L50.9816 92.5613L51.8974 92.9631C52.5358 91.5081 52.8383 89.8315 52.8383 87.9594H51.8383ZM50.9816 92.5613L50.064 92.164C49.5631 93.3208 48.868 94.27 47.9809 95.0287L48.6309 95.7887L49.2808 96.5486C50.4124 95.5808 51.2846 94.3785 51.8993 92.9587L50.9816 92.5613ZM48.6309 95.7887L47.9867 95.0238C47.0927 95.7766 46.0086 96.3537 44.7161 96.7438L45.0051 97.7012L45.2941 98.6585C46.8172 98.1987 48.1503 97.5007 49.275 96.5536L48.6309 95.7887ZM45.0051 97.7012L44.7219 96.7421C43.432 97.1229 41.9948 97.3188 40.4031 97.3188V98.3188V99.3188C42.1583 99.3188 43.7891 99.1028 45.2882 98.6602L45.0051 97.7012ZM40.4031 98.3188V97.3188C39.7106 97.3188 38.9941 97.2519 38.2526 97.116L38.0723 98.0996L37.8919 99.0832C38.7442 99.2395 39.5816 99.3188 40.4031 99.3188V98.3188ZM38.0723 98.0996L38.2526 97.116C37.4991 96.9779 36.751 96.7893 36.0081 96.5501L35.7016 97.502L35.395 98.4538C36.2193 98.7193 37.0517 98.9292 37.8919 99.0832L38.0723 98.0996ZM35.7016 97.502L36.0081 96.5501C35.2634 96.3103 34.538 96.0264 33.8317 95.6985L33.4105 96.6055L32.9894 97.5125C33.7706 97.8751 34.5725 98.1889 35.395 98.4538L35.7016 97.502ZM33.4105 96.6055L33.8379 95.7014C33.1401 95.3715 32.4907 95.0181 31.8886 94.6418L31.3586 95.4898L30.8286 96.3378C31.5015 96.7584 32.22 97.1488 32.9832 97.5095L33.4105 96.6055ZM31.3586 95.4898L32.3542 95.584L33.1112 87.5754L32.1156 87.4812L31.1201 87.3871L30.363 95.3957L31.3586 95.4898ZM32.1156 87.4812L31.5509 88.3066C32.0955 88.6791 32.6974 89.0325 33.3542 89.3679L33.809 88.4773L34.2638 87.5867C33.6722 87.2846 33.1451 86.974 32.6803 86.6559L32.1156 87.4812ZM33.809 88.4773L33.3694 89.3756C34.0218 89.6948 34.6941 89.9859 35.3862 90.2488L35.7414 89.3141L36.0966 88.3793C35.4606 88.1376 34.8446 87.8708 34.2485 87.5791L33.809 88.4773ZM35.7414 89.3141L35.4086 90.2571C36.1244 90.5097 36.8424 90.714 37.5626 90.8693L37.7734 89.8918L37.9843 88.9143C37.3498 88.7774 36.7131 88.5966 36.0742 88.3711L35.7414 89.3141ZM37.7734 89.8918L37.5665 90.8701C38.318 91.0291 39.0516 91.1109 39.7656 91.1109V90.1109V89.1109C39.2046 89.1109 38.6101 89.0467 37.9804 88.9134L37.7734 89.8918ZM39.7656 90.1109V91.1109C40.1852 91.1109 40.6094 91.081 41.0378 91.0219L40.9012 90.0312L40.7645 89.0406C40.4226 89.0878 40.0898 89.1109 39.7656 89.1109V90.1109ZM40.9012 90.0312L41.0656 91.0176C41.5494 90.937 42.0053 90.7965 42.4242 90.587L41.977 89.6926L41.5297 88.7982C41.3111 88.9075 41.0498 88.9927 40.7368 89.0449L40.9012 90.0312ZM41.977 89.6926L42.4242 90.587C42.8942 90.352 43.2841 90.0128 43.5801 89.5786L42.7539 89.0152L41.9277 88.4519C41.8253 88.6021 41.6972 88.7144 41.5297 88.7982L41.977 89.6926ZM42.7539 89.0152L43.5626 89.6034C43.9309 89.097 44.0727 88.4952 44.0727 87.8797H43.0727H42.0727C42.0727 88.1939 42.0019 88.3491 41.9452 88.4271L42.7539 89.0152ZM43.0727 87.8797H44.0727C44.0727 87.2472 43.7736 86.728 43.363 86.3379L42.6742 87.0629L41.9855 87.7879C42.0493 87.8486 42.0699 87.8858 42.0743 87.8948C42.0764 87.899 42.0755 87.8983 42.0743 87.8933C42.0731 87.8882 42.0727 87.8832 42.0727 87.8797H43.0727ZM42.6742 87.0629L43.363 86.3379C43.0098 86.0024 42.5979 85.7314 42.1391 85.5184L41.718 86.4254L41.2969 87.3324C41.5818 87.4647 41.8074 87.6187 41.9855 87.7879L42.6742 87.0629ZM41.718 86.4254L42.1652 85.531C41.7245 85.3106 41.2656 85.1442 40.7897 85.0332L40.5625 86.007L40.3353 86.9809C40.6563 87.0558 40.9677 87.1683 41.2708 87.3198L41.718 86.4254ZM40.5625 86.007L40.8202 85.0408C40.3785 84.923 39.953 84.8477 39.5664 84.8477V85.8477V86.8477C39.711 86.8477 39.9496 86.8785 40.3048 86.9733L40.5625 86.007ZM39.5664 85.8477V84.8477C39.3364 84.8477 39.0753 84.8639 38.7896 84.8925L38.8891 85.8875L38.9886 86.8825C39.234 86.858 39.4245 86.8477 39.5664 86.8477V85.8477ZM38.8891 85.8875L38.8365 84.8889C38.5502 84.904 38.2592 84.9339 37.9638 84.9783L38.1121 85.9672L38.2605 86.9561C38.4963 86.9207 38.7233 86.8976 38.9416 86.8861L38.8891 85.8875ZM38.1121 85.9672L37.9638 84.9783C37.6471 85.0257 37.337 85.0972 37.034 85.1929L37.3352 86.1465L37.6363 87.1001C37.838 87.0364 38.0458 86.9883 38.2605 86.9561L38.1121 85.9672ZM37.3352 86.1465L37.0675 85.183C36.753 85.2703 36.4277 85.4046 36.1526 85.6246L36.7773 86.4055L37.402 87.1863C37.3947 87.1922 37.4029 87.1841 37.4375 87.168C37.4719 87.1521 37.5253 87.1315 37.6028 87.11L37.3352 86.1465ZM36.7773 86.4055L37.7771 86.4264L37.8967 80.7288L36.8969 80.7078L35.8971 80.6868L35.7776 86.3845L36.7773 86.4055ZM36.8969 80.7078L36.78 81.701C37.0203 81.7292 37.2497 81.7508 37.4679 81.7654L37.5344 80.7676L37.6009 79.7698C37.4206 79.7578 37.225 79.7395 37.0137 79.7147L36.8969 80.7078ZM37.5344 80.7676L37.4679 81.7654C37.6919 81.7803 37.9267 81.7875 38.1719 81.7875V80.7875V79.7875C37.9655 79.7875 37.7753 79.7814 37.6009 79.7698L37.5344 80.7676ZM38.1719 80.7875V81.7875C38.693 81.7875 39.2467 81.7429 39.8307 81.6574L39.6859 80.668L39.5411 79.6785C39.0361 79.7524 38.5804 79.7875 38.1719 79.7875V80.7875ZM39.6859 80.668L39.8542 81.6537C40.4774 81.5473 41.066 81.3706 41.6158 81.1192L41.2 80.2098L40.7842 79.3003C40.4043 79.474 39.9836 79.6027 39.5176 79.6822L39.6859 80.668ZM41.2 80.2098L41.6369 81.1093C42.2296 80.8214 42.7355 80.4235 43.139 79.9148L42.3555 79.2934L41.572 78.672C41.3645 78.9336 41.1001 79.1466 40.7631 79.3103L41.2 80.2098ZM42.3555 79.2934L43.1259 79.9309C43.6239 79.3291 43.8336 78.5894 43.8336 77.7992H42.8336H41.8336C41.8336 78.2309 41.7246 78.4873 41.5851 78.6558L42.3555 79.2934ZM42.8336 77.7992H43.8336C43.8336 77.1724 43.658 76.5629 43.2183 76.0744L42.475 76.7434L41.7317 77.4123C41.7701 77.455 41.8336 77.5495 41.8336 77.7992H42.8336ZM42.475 76.7434L43.2343 76.0926C42.886 75.6862 42.4536 75.3826 41.9558 75.1798L41.5785 76.1059L41.2012 77.032C41.4206 77.1213 41.5859 77.2427 41.7157 77.3941L42.475 76.7434ZM41.5785 76.1059L41.9682 75.1849C41.5308 74.9999 41.0632 74.8788 40.5709 74.8153L40.443 75.807L40.315 76.7988C40.6462 76.8415 40.9356 76.9197 41.1889 77.0268L41.5785 76.1059ZM40.443 75.807L40.5709 74.8153C40.1268 74.7579 39.7112 74.7273 39.3273 74.7273V75.7273V76.7273C39.6076 76.7273 39.9357 76.7499 40.315 76.7988L40.443 75.807ZM39.3273 75.7273V74.7273C38.1338 74.7273 36.9585 74.934 35.8058 75.3426L36.1398 76.2852L36.4739 77.2277C37.4196 76.8925 38.3693 76.7273 39.3273 76.7273V75.7273ZM36.1398 76.2852L35.802 75.344C34.6472 75.7585 33.6176 76.3691 32.7217 77.1755L33.3906 77.9187L34.0596 78.662C34.7574 78.034 35.5606 77.5556 36.4777 77.2263L36.1398 76.2852ZM33.3906 77.9187L34.365 77.6939L32.6916 70.4423L31.7172 70.6672L30.7428 70.892L32.4162 78.1436L33.3906 77.9187ZM31.7172 70.6672L32.349 71.4423C33.4734 70.5256 34.7535 69.826 36.1971 69.3448L35.8809 68.3961L35.5646 67.4474C33.9004 68.0021 32.4047 68.8165 31.0853 69.8921L31.7172 70.6672ZM35.8809 68.3961L36.2019 69.3432C37.6706 68.8453 39.1361 68.5992 40.6023 68.5992V67.5992V66.5992C38.9076 66.5992 37.2255 66.8844 35.5598 67.449L35.8809 68.3961ZM40.6023 67.5992V68.5992C41.9506 68.5992 43.2277 68.7969 44.4385 69.1882L44.7461 68.2367L45.0537 67.2852C43.6348 66.8266 42.1494 66.5992 40.6023 66.5992V67.5992ZM44.7461 68.2367L44.45 69.1919C45.6639 69.5682 46.7168 70.1273 47.6202 70.8643L48.2523 70.0895L48.8845 69.3146C47.7691 68.4047 46.4845 67.7287 45.0422 67.2816L44.7461 68.2367ZM48.2523 70.0895L47.6264 70.8693C48.5197 71.5863 49.2331 72.4742 49.7685 73.5449L50.6629 73.0977L51.5573 72.6504C50.8973 71.3305 50.0038 70.2129 48.8783 69.3096L48.2523 70.0895ZM50.6629 73.0977L49.7685 73.5449C50.2857 74.5793 50.5594 75.8027 50.5594 77.2414H51.5594H52.5594C52.5594 75.5457 52.2354 74.0067 51.5573 72.6504L50.6629 73.0977ZM51.5594 77.2414H50.5594C50.5594 77.5937 50.5077 77.9595 50.3986 78.3413L51.3602 78.616L52.3217 78.8907C52.4782 78.3428 52.5594 77.7922 52.5594 77.2414H51.5594ZM51.3602 78.616L50.3986 78.3413C50.2843 78.7416 50.1295 79.1318 49.9333 79.5127L50.8223 79.9707L51.7112 80.4287C51.9666 79.933 52.1704 79.4201 52.3217 78.8907L51.3602 78.616ZM50.8223 79.9707L49.9333 79.5127C49.7372 79.8934 49.5069 80.2504 49.2419 80.5845L50.0254 81.2059L50.8089 81.8273C51.1549 81.391 51.4558 80.9245 51.7112 80.4287L50.8223 79.9707ZM50.0254 81.2059L49.2527 80.5711C48.9868 80.8948 48.7091 81.1713 48.4209 81.4041L49.0492 82.182L49.6776 82.96C50.08 82.635 50.4531 82.2606 50.7981 81.8406L50.0254 81.2059ZM49.0492 82.182L48.6371 83.0931C49.073 83.2904 49.4064 83.5429 49.6595 83.8429L50.4238 83.198L51.1881 82.5532C50.7241 82.0032 50.1411 81.5784 49.4614 81.2709L49.0492 82.182ZM50.4238 83.198L49.6595 83.8429C49.9506 84.1878 50.182 84.5697 50.3553 84.9921L51.2805 84.6125L52.2056 84.2329C51.9539 83.6194 51.6143 83.0583 51.1881 82.5532L50.4238 83.198ZM51.2805 84.6125L50.3553 84.9921C50.534 85.4276 50.6591 85.8962 50.7279 86.4011L51.7188 86.266L52.7096 86.1309C52.6191 85.4671 52.452 84.8334 52.2056 84.2329L51.2805 84.6125ZM51.7188 86.266L50.7283 86.4042C50.8019 86.9311 50.8383 87.4493 50.8383 87.9594H51.8383H52.8383C52.8383 87.3538 52.795 86.7432 52.7092 86.1278L51.7188 86.266Z" fill="#C76F17" mask="url(#path-18-outside-1_217_117)"/>
</g>
<defs>
<filter id="filter0_d_217_117" x="0.6" y="0.6" width="79.8" height="122.037" filterUnits="userSpaceOnUse" color-interpolation-filters="sRGB">
<feFlood flood-opacity="0" result="BackgroundImageFix"/>
<feColorMatrix in="SourceAlpha" type="matrix" values="0 0 0 0 0 0 0 0 0 0 0 0 0 0 0 0 0 0 127 0" result="hardAlpha"/>
<feOffset/>
<feGaussianBlur stdDeviation="8.2"/>
<feComposite in2="hardAlpha" operator="out"/>
<feColorMatrix type="matrix" values="0 0 0 0 1 0 0 0 0 1 0 0 0 0 1 0 0 0 0.5 0"/>
<feBlend mode="normal" in2="BackgroundImageFix" result="effect1_dropShadow_217_117"/>
<feBlend mode="normal" in="SourceGraphic" in2="effect1_dropShadow_217_117" result="shape"/>
</filter>
<filter id="filter1_d_217_117" x="25.3049" y="61.5992" width="32.5334" height="42.7195" filterUnits="userSpaceOnUse" color-interpolation-filters="sRGB">
<feFlood flood-opacity="0" result="BackgroundImageFix"/>
<feColorMatrix in="SourceAlpha" type="matrix" values="0 0 0 0 0 0 0 0 0 0 0 0 0 0 0 0 0 0 127 0" result="hardAlpha"/>
<feOffset/>
<feGaussianBlur stdDeviation="2.5"/>
<feComposite in2="hardAlpha" operator="out"/>
<feColorMatrix type="matrix" values="0 0 0 0 0 0 0 0 0 0 0 0 0 0 0 0 0 0 0.25 0"/>
<feBlend mode="normal" in2="BackgroundImageFix" result="effect1_dropShadow_217_117"/>
<feBlend mode="normal" in="SourceGraphic" in2="effect1_dropShadow_217_117" result="shape"/>
</filter>
</defs>
</svg>
