<svg width="1095" height="956" viewBox="0 0 1095 956" fill="none" xmlns="http://www.w3.org/2000/svg">
<path d="M722.787 833.779L730.568 923.609C732.165 942.074 716.789 957.495 698.412 955.884L667.884 953.173C656.544 952.163 646.775 944.721 642.752 934.018C634.188 911.282 617.83 869.66 598.164 828.651C569.513 823.05 542.587 808.498 522.389 787.284C504.574 768.577 492.14 744.831 486.506 719.576L596.598 689.769L722.787 833.779Z" fill="#C2596B"/>
<path d="M604.29 710.932C629.898 789.126 703.151 845.569 789.522 845.569C882.131 845.569 959.673 780.674 979.576 693.669C979.576 693.669 900.891 592.612 755.576 610.079C629.786 625.219 604.29 710.932 604.29 710.932Z" fill="#ED657B"/>
<path d="M1095 489.585C1095 458.998 1079.9 431.966 1056.79 415.585C1069.81 399.882 1077.66 379.679 1077.66 357.646C1077.66 313.901 1046.8 277.419 1005.79 268.954C1008.69 258.903 1010.28 248.277 1010.28 237.267C1010.28 174.661 959.786 123.908 897.499 123.908C890.659 123.908 883.945 124.522 877.432 125.724C867.588 127.489 858.183 130.558 849.408 134.714C849.395 134.714 849.395 134.726 849.382 134.726C847.019 74.2171 797.494 25.8942 736.716 25.8942C711.947 25.8942 689.076 33.9246 670.468 47.5302C641.739 18.1835 601.795 6.57439e-05 557.601 6.57439e-05C515.506 6.57439e-05 477.246 16.4955 448.881 43.4255C432.612 32.3517 412.986 25.8942 391.863 25.8942C349.73 25.8942 313.584 51.6094 298.094 88.2576C284.163 81.3653 268.497 77.478 251.926 77.478C194.102 77.478 147.242 124.573 147.242 182.678C147.242 187.077 147.545 191.387 148.061 195.619C144.702 195.299 141.309 195.121 137.864 195.121C81.6237 195.121 36.0222 240.95 36.0222 297.482C36.0222 306.702 37.2536 315.615 39.5299 324.105C15.6664 340.396 0 367.876 0 399.051C0 419.332 6.63946 438.04 17.8672 453.141C18.458 453.947 19.0731 454.74 19.6895 455.52C14.7483 463.934 11.1152 473.23 9.0909 483.115C7.85814 489.035 7.23027 495.16 7.23027 501.439C7.23027 551.45 47.5517 591.972 97.3029 591.972C103.753 591.972 110.027 591.282 116.087 589.99C129.238 623.633 161.815 647.456 199.936 647.456C205.845 647.456 211.616 646.881 217.211 645.781C226.604 643.952 235.468 640.641 243.564 636.127C243.652 636.318 243.728 636.51 243.816 636.689C243.829 636.728 243.842 636.753 243.853 636.779C260.852 674.514 298.61 700.779 342.501 700.779C364.052 700.779 384.118 694.411 400.991 683.503C432.097 707.837 477.686 723.182 528.495 723.182C585.802 723.182 636.483 703.643 667.224 673.734C674.178 666.969 680.112 659.668 684.878 651.944C700.066 663.683 719.063 670.665 739.695 670.665C761.006 670.665 780.583 663.223 795.998 650.794C796.009 650.781 796.035 650.768 796.048 650.742C796.537 650.359 797.003 649.975 797.481 649.566C803.102 656.816 809.903 663.517 817.698 669.54C843.762 689.692 880.953 702.301 922.242 702.301C1001.11 702.301 1065.06 656.292 1065.06 599.542C1065.06 587.036 1061.94 575.055 1056.25 563.968C1079.67 547.626 1095 520.415 1095 489.585Z" fill="#F57890"/>
<path d="M638.595 134.138C606.697 137.233 584.192 148.114 571.707 166.439C551.263 196.45 562.855 238.175 562.969 238.597C564.213 242.958 563.284 247.676 560.467 251.218C557.638 254.773 553.287 256.768 548.749 256.538C513.205 254.709 487.065 262.79 471.023 280.552C445.914 308.364 452.326 352.224 452.401 352.659C453.018 356.687 451.873 360.792 449.247 363.899C446.619 367.006 442.771 368.848 438.709 368.899C405.705 369.346 381.087 378.707 365.56 396.724C340.502 425.777 345.985 469.01 346.047 469.445C347.065 477.028 341.848 484.074 334.291 485.25C295.365 491.324 267.805 509.277 252.377 538.611C231.293 578.674 238.988 624.618 243.564 636.127C235.468 640.641 226.603 643.952 217.211 645.781C209.001 623.403 204.186 569.85 227.496 525.517C245.249 491.772 276.167 469.253 317.368 459.88C317.18 441.045 320.498 406.097 344.086 378.592C362.53 357.071 389.197 344.654 423.497 341.547C423.207 322.021 426.602 287.956 450 261.895C468.96 240.784 496.672 229.505 532.53 228.278C530.191 208.931 530.28 177.5 548.333 150.825C565.722 125.136 595.181 110.111 635.879 106.172C643.612 105.443 650.477 111.07 651.231 118.806C651.973 126.517 646.328 133.384 638.595 134.138Z" fill="#ED657B"/>
<path d="M684.878 651.944C680.112 659.668 674.178 666.969 667.224 673.734C656.977 666.778 649.019 659.706 643.5 654.221C637.326 657.98 628.877 662.289 618.743 665.371C598.526 671.496 567.534 673.926 534.655 650.653C528.331 646.165 526.822 637.393 531.311 631.05C535.799 624.733 544.576 623.224 550.899 627.713C595.534 659.31 634.698 626.447 636.345 625.027C639.262 622.47 643.084 621.255 646.957 621.639C650.83 622.01 654.338 624.004 656.714 627.086C656.776 627.176 666.37 639.937 684.878 651.944Z" fill="#ED657B"/>
<path d="M849.949 632.188C840.946 649.822 824.752 663.913 817.698 669.54C809.904 663.517 803.102 656.816 797.481 649.566L797.921 649.285C798.097 649.144 816.592 635.717 824.928 619.401C828.461 612.483 836.923 609.746 843.838 613.276C850.753 616.805 853.481 625.283 849.949 632.188Z" fill="#ED657B"/>
<path d="M750.661 534.455C736.401 534.455 725.462 531.156 724.016 530.709C716.617 528.369 712.512 520.479 714.85 513.075C717.182 505.684 725.051 501.579 732.436 503.894C732.823 504.009 745.087 507.64 758.358 505.863C774.174 503.753 784.318 494.943 789.37 478.946C791.707 471.555 799.6 467.45 807.003 469.777C814.403 472.118 818.509 480.02 816.172 487.411C807.736 514.124 788.131 530.619 760.965 533.854C757.406 534.289 753.943 534.455 750.661 534.455Z" fill="#ED657B"/>
<path d="M900.882 561.935C894.709 561.935 889.051 557.83 887.338 551.59C885.294 544.135 889.65 536.437 897.079 534.353C900.014 533.483 924.926 525.287 924.926 496.042C924.926 465.724 900.881 455.174 899.125 454.446C893.778 452.489 890.262 447.553 890.038 441.85C889.814 436.147 893.194 430.904 898.401 428.551C899.713 427.938 932.377 412.171 932.377 373.106C932.377 342.621 902.531 333.747 901.26 333.376C893.771 331.343 889.391 323.645 891.424 316.152C893.457 308.658 901.218 304.247 908.712 306.28C926.618 311.139 960.482 331.356 960.482 373.106C960.482 407.043 943.613 428.833 929.364 441.172C940.877 451.53 953.031 468.895 953.031 496.042C953.031 537.256 921.357 556.833 904.61 561.424C903.364 561.769 902.113 561.935 900.882 561.935Z" fill="#ED657B"/>
<path d="M529.527 503.51C521.871 503.51 515.604 497.321 515.479 489.636C515.457 488.23 515.216 454.944 541.232 431.94C558.725 416.48 583.16 409.652 613.992 411.596C616.856 395.202 624.715 368.963 646.289 349.91C667.037 331.586 695.138 324.272 729.81 328.133C737.523 329.003 743.078 335.946 742.218 343.657C741.356 351.381 734.402 356.93 726.692 356.073C700.325 353.12 679.584 358.094 665.045 370.843C641.439 391.532 640.466 426.864 640.458 427.222C640.378 431.237 638.581 435.06 635.523 437.656C632.465 440.265 628.43 441.467 624.459 440.904C595.446 436.85 573.787 440.853 560.08 452.796C543.719 467.067 543.581 489.061 543.582 489.278C543.709 497.04 537.52 503.382 529.76 503.51C529.682 503.51 529.605 503.51 529.527 503.51Z" fill="#ED657B"/>
<path d="M167.739 403.386C167.539 403.386 167.339 403.386 167.138 403.373C159.383 403.054 153.362 396.468 153.686 388.719C153.731 387.645 154.969 362.314 171.346 337.353C185.133 316.331 212.201 291.83 264.079 288.518C263.417 270.667 265.607 241.321 282.904 216.22C298.288 193.88 322.018 179.725 353.437 174.15C361.072 172.794 368.373 177.896 369.729 185.53C371.084 193.177 365.988 200.466 358.346 201.821C334.685 206.028 317.127 216.168 306.16 231.999C286.372 260.553 293.246 299.221 293.318 299.618C294.087 303.761 292.955 308.057 290.23 311.267C287.504 314.489 283.478 316.318 279.265 316.267C240.099 315.563 211.913 327.558 195.471 351.828C182.923 370.357 181.775 389.768 181.765 389.96C181.449 397.517 175.228 403.386 167.739 403.386Z" fill="#ED657B"/>
<path d="M82.3292 499.879C80.9085 506.49 75.0747 510.991 68.6002 510.991C67.6193 510.991 66.6257 510.888 65.6321 510.671C41.0142 505.364 22.0293 493.664 9.0918 483.115C11.1161 473.23 14.7492 463.934 19.6904 455.52C27.8759 462.872 45.3019 477.539 71.5414 483.191C79.1361 484.828 83.9635 492.309 82.3292 499.879Z" fill="#ED657B"/>
<path d="M867.412 199.788C865.212 205.555 862.321 210.977 859.443 215.619C854.423 223.713 842.931 224.48 836.868 217.127C833.314 212.831 832.717 206.834 835.256 201.859C840.759 191.08 849.254 168.932 849.408 134.714C858.183 130.558 867.588 127.489 877.432 125.724C878.174 155.493 874.804 180.39 867.412 199.788Z" fill="#ED657B"/>
<path d="M785.58 749.933C753.607 749.933 721.53 743.898 692.014 732.082C684.808 729.205 681.304 721.021 684.189 713.822C687.073 706.61 695.245 703.106 702.458 705.996C742.196 721.903 787.175 725.995 829.103 717.517C836.714 715.983 844.123 720.906 845.662 728.514C847.199 736.123 842.277 743.527 834.669 745.074C818.582 748.322 802.095 749.933 785.58 749.933Z" fill="#C2596B"/>
<path d="M795.138 798.768C764.895 798.768 734.516 793.333 706.231 782.784C698.961 780.073 695.265 771.978 697.979 764.702C700.692 757.439 708.786 753.744 716.059 756.455C746.824 767.938 780.371 772.592 813.084 769.945C820.779 769.331 827.599 775.073 828.227 782.809C828.855 790.545 823.094 797.323 815.357 797.949C808.642 798.499 801.893 798.768 795.138 798.768Z" fill="#C2596B"/>
</svg>
