<svg width="987" height="956" viewBox="0 0 987 956" fill="none" xmlns="http://www.w3.org/2000/svg">
<path d="M292.686 492.678C290.232 492.232 287.825 491.59 285.471 490.791C282.532 488.492 279.773 485.857 277.295 482.794C256.988 457.711 261.561 416.617 287.492 391.001C298.434 380.19 311.433 373.867 324.332 372.061C332.688 370.885 340.992 371.627 348.673 374.244C351.606 376.542 354.356 379.177 356.828 382.234C364.74 391.974 368.834 404.156 369.443 416.883L383.815 424.7L484.682 325.096L410.92 232.712C423.806 230.899 436.77 224.57 447.693 213.795C473.647 188.179 478.192 147.056 457.887 122.001C453.547 116.628 448.415 112.424 442.78 109.384C442.832 109.413 442.887 109.436 442.94 109.465L428.564 101.648C418.945 96.4082 407.837 94.5901 396.65 96.1592C383.75 97.9774 370.743 104.306 359.801 115.128C350.582 124.219 344.119 135.278 340.46 146.899L278.164 69.906L263.789 62.0834L0 322.594L206.518 577.761L220.893 585.583L307.06 500.501L292.686 492.678Z" fill="#72CFB6"/>
<path d="M662.653 818.973L660.198 817.618L660.569 819.118L336.22 955.989L321.864 948.189L308.172 893.014L288.501 813.773L237.952 610.169L343.903 565.422C334.833 558.433 327.93 548.15 324.752 535.237C316.491 502.018 335.613 464.173 367.531 450.74C372.586 448.603 377.641 447.184 382.638 446.495C394.105 444.903 405.14 446.93 414.499 452.042L427.728 459.263L428.103 459.466C440.783 466.078 450.576 478.157 454.562 494.329C456.498 502.157 456.902 510.218 456.006 518.162L562.276 473.304L564.731 474.63L564.384 473.131L565.681 472.581L535.846 352.606C540.495 354.256 545.405 355.206 550.488 355.408C553.725 355.553 557.048 355.379 560.372 354.916C565.368 354.227 570.423 352.837 575.477 350.701C607.367 337.238 626.514 299.393 618.228 266.174C615.079 253.349 608.258 243.152 599.279 236.128C591.769 233.586 583.565 232.753 575.072 233.934C570.075 234.658 565.021 236.041 559.966 238.184C546.216 243.963 534.833 254.304 527.005 266.927L512.624 259.098L482.262 136.813L653.117 64.7415L739.257 28.3959L806.586 0.000203054L820.973 7.8288L904.884 345.82L903.581 346.37L987 682.131L662.653 818.973Z" fill="#72CFB6"/>
<path d="M662.653 818.973L660.198 817.618L660.569 819.118L336.22 955.989L321.864 948.189L308.172 893.014L288.501 813.773L237.952 610.169L343.903 565.422C334.833 558.433 327.93 548.15 324.752 535.237C316.491 502.018 335.613 464.173 367.531 450.74C372.586 448.603 377.641 447.184 382.638 446.495C394.105 444.903 405.14 446.93 414.499 452.042L427.728 459.263L428.103 459.466C440.783 466.078 450.576 478.157 454.562 494.329C456.498 502.157 456.902 510.218 456.006 518.162L562.276 473.304L564.731 474.63L564.384 473.131L565.681 472.581L535.846 352.606C540.495 354.256 545.405 355.206 550.488 355.408C553.725 355.553 557.048 355.379 560.372 354.916C565.368 354.227 570.423 352.837 575.477 350.701C607.367 337.238 626.514 299.393 618.228 266.174C615.079 253.349 608.258 243.152 599.279 236.128C591.769 233.586 583.565 232.753 575.072 233.934C570.075 234.658 565.021 236.041 559.966 238.184C546.216 243.963 534.833 254.304 527.005 266.927L512.624 259.098L482.262 136.813L653.117 64.7415L739.257 28.3959L806.586 0.000203054L820.973 7.8288L904.884 345.82L903.581 346.37L987 682.131L662.653 818.973Z" fill="#F24D77"/>
<path d="M820.961 7.82824L806.585 0.0113525L739.262 28.3895L653.134 64.7294L482.268 136.824L512.623 259.092L526.999 266.915C534.821 254.309 546.204 243.962 559.954 238.183C565.014 236.047 570.086 234.651 575.083 233.951C583.553 232.758 591.775 233.586 599.278 236.145C599.29 236.145 599.296 236.151 599.307 236.157C608.275 243.175 615.078 253.36 618.228 266.174C626.513 299.392 607.366 337.238 575.477 350.7C570.422 352.837 565.368 354.227 560.371 354.916C557.048 355.379 553.725 355.553 550.488 355.408C545.405 355.205 540.495 354.256 535.846 352.605L565.68 472.58L566.23 474.832L580.618 482.661L580.612 482.644L681.51 440.085C680.85 443.93 680.473 447.838 680.468 451.793C680.433 469.407 686.998 484.404 697.686 494.375C700.761 497.27 704.171 499.748 707.859 501.752L722.235 509.574C722.026 509.458 721.824 509.325 721.609 509.209C730.833 514.403 741.85 516.656 753.731 514.988C769.994 512.701 784.712 503.489 795.417 490.484C806.099 477.479 812.717 460.629 812.752 443.044C812.78 425.812 806.447 411.11 796.135 401.111C793.744 398.806 791.173 396.739 788.423 394.944L790.849 393.948L825.443 379.327L843.593 371.678L903.593 346.352L904.878 345.813L820.961 7.82824Z" fill="#FCCB49"/>
<path d="M368.211 386.699C367.942 386.421 367.669 386.148 367.396 385.876C366.452 384.938 365.487 384.041 364.491 383.195C364.373 383.097 364.26 382.987 364.141 382.889C363.038 381.974 361.896 381.122 360.734 380.318C360.43 380.109 360.121 379.907 359.814 379.704C358.803 379.038 357.774 378.407 356.726 377.822C354.142 376.38 351.45 375.187 348.674 374.244C351.606 376.542 354.357 379.177 356.829 382.234C364.741 391.974 368.835 404.156 369.443 416.883L383.816 424.7C383.209 411.973 379.116 399.79 371.203 390.057C370.248 388.876 369.241 387.77 368.211 386.699Z" fill="#51AD94"/>
<path d="M374.176 122.945C385.118 112.123 398.124 105.794 411.024 103.982C412.297 103.802 413.569 103.681 414.839 103.588C415.233 103.559 415.627 103.548 416.021 103.53C416.915 103.484 417.805 103.455 418.694 103.455C419.125 103.455 419.556 103.461 419.987 103.466C420.901 103.49 421.81 103.536 422.717 103.605C423.07 103.629 423.427 103.646 423.78 103.681C425.02 103.796 426.253 103.953 427.476 104.156C427.673 104.19 427.864 104.237 428.061 104.271C429.089 104.457 430.111 104.677 431.124 104.92C431.518 105.018 431.908 105.128 432.299 105.233C433.129 105.458 433.953 105.702 434.772 105.974C435.168 106.101 435.564 106.228 435.957 106.367C436.854 106.692 437.738 107.039 438.616 107.41C438.887 107.525 439.162 107.624 439.43 107.746C440.565 108.249 441.682 108.794 442.779 109.384C442.831 109.413 442.886 109.436 442.939 109.465L428.564 101.648C418.945 96.4081 407.836 94.59 396.649 96.1592C383.749 97.9773 370.743 104.306 359.8 115.128C350.582 124.219 344.118 135.278 340.459 146.899L352.839 162.197C355.795 147.884 362.994 133.976 374.176 122.945Z" fill="#51AD94"/>
<path d="M220.893 585.583L14.3753 330.417L278.164 69.906L263.789 62.0834L0 322.594L206.518 577.761L220.893 585.583Z" fill="#51AD94"/>
<path d="M605.67 598.096C606.614 597.118 607.558 596.139 608.501 595.213C614.546 589.515 621.499 584.802 629.229 581.53C631.759 580.494 634.283 579.596 636.813 578.913C639.326 578.212 641.839 577.691 644.328 577.344C655.786 575.728 666.804 577.772 676.184 582.879L682.986 586.579C683.664 586.776 684.347 586.967 685.013 587.193C685.69 587.726 686.397 588.218 687.051 588.791L690.559 590.696C689.54 590.146 688.493 589.643 687.439 589.162C687.45 589.174 687.462 589.185 687.474 589.191C701.247 595.485 712.005 608.027 716.289 625.178C721.928 647.91 714.761 672.768 699.499 690.585C698.26 691.957 697.05 693.248 695.811 694.51C695.151 695.147 694.491 695.813 693.808 696.427C692.493 697.672 691.127 698.876 689.714 699.977C684.804 703.937 679.345 707.238 673.48 709.698C672.218 710.254 670.955 710.735 669.693 711.181C668.454 711.603 667.215 711.968 665.976 712.333C663.423 713.051 660.881 713.584 658.351 713.943C649.823 715.141 641.515 714.302 633.959 711.679L642.354 745.853L647.466 766.507L660.204 817.624L662.659 818.961L987 682.142L903.593 346.352L843.594 371.679L825.443 379.328L790.849 393.948L788.423 394.944C791.173 396.739 793.744 398.806 796.135 401.111C806.447 411.111 812.781 425.812 812.752 443.044C812.717 460.629 806.099 477.479 795.417 490.484C784.712 503.489 769.995 512.701 753.731 514.988C741.851 516.656 730.833 514.403 721.61 509.21C721.824 509.325 722.027 509.459 722.235 509.574L707.859 501.752C704.171 499.748 700.761 497.27 697.687 494.375C686.999 484.404 680.433 469.407 680.468 451.793C680.474 447.838 680.85 443.93 681.51 440.085L580.612 482.65L605.67 598.096Z" fill="#5451AC"/>
<path d="M302.874 821.59L252.317 617.992L358.283 573.25C349.206 566.267 342.307 555.978 339.122 543.071C330.851 509.835 349.988 471.978 381.906 458.556C386.957 456.414 392.029 455.024 397.019 454.318C398.572 454.103 400.114 453.964 401.648 453.878C402.151 453.849 402.645 453.854 403.145 453.843C404.177 453.814 405.205 453.797 406.225 453.825C406.802 453.843 407.373 453.889 407.945 453.924C408.882 453.982 409.812 454.057 410.736 454.167C411.321 454.231 411.902 454.312 412.481 454.399C413.39 454.538 414.289 454.7 415.182 454.891C415.741 455.007 416.3 455.117 416.854 455.256C417.783 455.476 418.696 455.742 419.607 456.02C420.096 456.165 420.589 456.304 421.072 456.466C422.155 456.831 423.215 457.248 424.267 457.682C424.555 457.803 424.853 457.902 425.139 458.029C426.414 458.585 427.665 459.193 428.886 459.859L414.511 452.036C405.129 446.935 394.102 444.891 382.644 446.501C377.654 447.201 372.582 448.597 367.53 450.733C335.613 464.161 316.476 502.012 324.747 535.249C327.931 548.161 334.831 558.444 343.909 565.428L237.941 610.169L288.5 813.773L308.174 893.025L321.858 948.177L336.233 956L322.549 900.847L302.874 821.59Z" fill="#C71C46"/>
<path d="M576.658 481.127L452.627 533.477C454.303 528.48 455.429 523.332 456.006 518.161L562.276 473.304L564.731 474.63L576.658 481.127Z" fill="#C71C46"/>
<path d="M589.859 358.529C584.805 360.637 579.721 362.026 574.754 362.744C566.144 363.931 557.825 363.092 550.228 360.434L580.619 482.661L566.231 474.833L565.681 472.58L535.847 352.605C540.496 354.256 545.406 355.205 550.489 355.408C553.725 355.553 557.049 355.379 560.372 354.916C565.369 354.227 570.423 352.837 575.477 350.7C607.367 337.238 626.514 299.393 618.229 266.174C615.079 253.348 608.259 243.152 599.279 236.128C601.994 237.054 604.594 238.212 607.078 239.567C608.548 240.378 609.938 241.218 611.293 242.167C611.64 242.399 611.93 242.659 612.277 242.891C613.284 243.615 614.298 244.391 615.253 245.201C615.71 245.607 616.174 246.041 616.608 246.446C617.418 247.164 618.171 247.888 618.918 248.67C619.41 249.156 619.844 249.677 620.307 250.169C620.967 250.951 621.633 251.733 622.27 252.538C622.733 253.088 623.139 253.667 623.567 254.246C624.175 255.08 624.754 255.919 625.304 256.817C625.709 257.419 626.086 258.027 626.427 258.664C626.977 259.59 627.498 260.569 627.99 261.553C628.309 262.161 628.621 262.763 628.911 263.429C629.432 264.529 629.866 265.682 630.329 266.84C630.532 267.419 630.793 267.963 630.995 268.542C631.597 270.302 632.147 272.097 632.611 273.973C640.873 307.227 621.749 345.066 589.859 358.529Z" fill="#EAA11C"/>
<path d="M526.999 266.915L496.643 144.647L667.504 72.5463L753.633 36.2123L820.961 7.8283L806.585 0.0114058L739.262 28.3896L653.134 64.7294L482.268 136.824L512.623 259.092L526.999 266.915Z" fill="#EAA11C"/>
</svg>
