<svg width="793" height="958" viewBox="0 0 793 958" fill="none" xmlns="http://www.w3.org/2000/svg">
<path d="M399.105 13.8031C399.105 13.8031 399.105 13.8033 397.192 12.4858C395.279 13.8033 395.279 13.8031 395.279 13.8031C365.761 33.8089 171.164 155.791 11.1152 11.1346V559.045C11.1152 559.045 45.3689 808.895 395.245 947.673C395.245 947.673 395.245 947.673 397.192 948.458C399.139 947.673 399.139 947.673 399.139 947.673C749.014 808.895 783.264 559.045 783.264 559.045V11.1346C623.218 155.791 428.619 33.8089 399.105 13.8031Z" fill="#45DDA6"/>
<path d="M398.793 94.4807C398.793 94.4807 398.793 94.4808 397.194 93.3857C395.591 94.4808 395.591 94.4807 395.591 94.4807C370.92 111.21 196.587 221.556 62.8086 100.644V558.629C62.8086 558.629 103.116 759.073 395.566 875.076C395.566 875.076 395.566 875.076 397.194 875.73C398.818 875.076 398.818 875.076 398.818 875.076C691.268 759.073 731.578 558.629 731.578 558.629V100.644C597.798 221.556 423.464 111.21 398.793 94.4807Z" fill="#73EABC"/>
<path d="M404.016 4.74435C403.378 4.30379 402.74 3.86736 402.107 3.4268C399.283 1.49251 395.1 1.49251 392.28 3.4268C278.887 81.3479 127.091 100.129 17.9991 3.72059C11.7087 -1.8473 1.3844 1.30375 1.3844 11.1346C1.3844 105.247 1.3844 199.36 1.3844 293.473C1.3844 356.545 1.3844 419.609 1.3844 482.672C1.3844 508.229 -1.97227 536.736 1.7679 562.091C13.3065 640.268 63.3159 714.694 112.365 770.344C170.167 835.933 242.094 885.839 317.665 924.21C340.084 935.593 363.052 945.726 386.217 955.204C404.612 962.732 421.945 949.641 439.315 941.929C483.942 922.124 527 898.393 567.742 870.499C662.887 805.341 748.717 710.473 785.015 593.183C789.295 579.345 793 565.645 793 551.06C793 508.019 793 464.978 793 421.937C793 285.006 793 148.07 793 11.1346C793 1.30375 782.674 -1.8473 776.385 3.72059C667.666 99.8013 517.505 81.2472 404.016 4.74435C393.341 -2.45152 383.582 15.704 394.193 22.8621C439.706 53.5463 491.696 74.7941 544.392 85.2753C632.996 102.898 720.303 80.278 790.147 18.5529C784.608 16.0816 779.07 13.606 773.536 11.1346C773.536 105.247 773.536 199.36 773.536 293.473C773.536 356.545 773.536 419.609 773.536 482.672C773.536 502.292 773.536 521.908 773.536 541.523C773.536 546.244 773.536 550.964 773.536 555.684C773.536 560.535 773.749 557.119 773.775 556.96C760.746 640.524 705.353 717.816 650.48 774.623C583.774 843.683 501.196 893.269 415.668 929.74C411.849 931.368 395.2 936.499 397.831 937.557C385.223 932.488 372.69 927.222 360.245 921.701C334.373 910.216 309.139 897.041 284.476 882.818C245.4 860.286 208.215 833.785 173.986 803.432C105.405 742.626 40.6928 657.584 21.4523 561.621C20.5984 557.367 20.4411 557.467 20.4986 557.568C20.559 557.673 20.851 557.778 20.851 553.137C20.851 538.036 20.851 522.94 20.851 507.843C20.851 448.9 20.851 389.961 20.851 331.022C20.851 224.393 20.851 117.764 20.851 11.1346C15.3125 13.606 9.77441 16.0816 4.238 18.5529C74.784 80.899 160.779 101.715 249.995 85.2753C303.198 75.4738 356.544 52.8539 402.107 21.5445C398.83 21.5445 395.557 21.5445 392.28 21.5445C392.918 21.9851 393.555 22.4215 394.193 22.8621C404.813 30.1545 414.564 11.9906 404.016 4.74435Z" fill="#29CE8F"/>
<path d="M587.577 458.815C587.577 569.472 497.878 659.166 387.225 659.166C276.577 659.166 186.875 569.472 186.875 458.815C186.875 348.162 276.577 258.459 387.225 258.459C497.878 258.459 587.577 348.162 587.577 458.815Z" fill="#45DDA6"/>
<path d="M510.028 374.344C455.943 417.876 401.855 461.408 347.77 504.944C315.546 485.152 283.322 465.365 251.102 445.573C227.979 431.37 206.919 467.672 229.926 481.804C266.182 504.076 302.438 526.339 338.699 548.61C347.359 553.931 356.796 551.224 364.121 545.329C422.645 498.222 481.169 451.116 539.697 404.009C560.781 387.041 530.894 357.548 510.028 374.344Z" fill="white"/>
<path d="M392.279 3.42639C393.689 2.46135 395.439 1.97465 397.193 1.97465C395.439 1.97884 393.689 2.46135 392.279 3.42639Z" fill="white"/>
<path d="M397.192 937.301C384.794 932.312 372.479 927.13 360.244 921.701C334.372 910.217 309.138 897.042 284.475 882.818C245.399 860.286 208.214 833.785 173.985 803.432C105.404 742.626 40.6918 657.585 21.4513 561.621C20.85 558.617 20.5924 557.782 20.5156 557.589C20.5219 557.593 20.5303 557.598 20.5387 557.598C20.6386 557.598 20.85 557.09 20.85 553.137C20.85 538.037 20.85 522.94 20.85 507.843C20.85 448.9 20.85 389.961 20.85 331.022C20.85 231.438 20.85 131.841 20.85 32.2525C72.203 71.6976 130.771 90.6712 192.255 90.6712C211.268 90.6712 230.546 88.8587 249.994 85.2754C301.296 75.8264 352.729 54.4527 397.192 24.8636V93.386C395.589 94.4811 395.59 94.4811 395.59 94.4811C379.431 105.436 299.064 156.546 207.957 156.554C159.949 156.559 108.972 142.372 62.8068 100.645V558.63C62.8068 558.63 103.115 759.074 395.564 875.076C395.564 875.076 395.564 875.076 397.192 875.731V937.301Z" fill="#7DE7C1"/>
<path d="M397.194 875.73C395.566 875.076 395.566 875.076 395.566 875.076C103.116 759.073 62.8086 558.629 62.8086 558.629V100.644C108.974 142.372 159.95 156.558 207.958 156.554C299.066 156.546 379.433 105.436 395.591 94.4807C395.591 94.4807 395.591 94.4808 397.194 93.3857V258.702C393.892 258.543 390.569 258.459 387.225 258.459C276.576 258.459 186.874 348.162 186.874 458.814C186.874 569.471 276.576 659.166 387.225 659.166C390.569 659.166 393.892 659.082 397.194 658.919V875.73Z" fill="#9DF0D0"/>
<path d="M397.194 957.423C393.573 957.369 389.914 956.718 386.218 955.204C363.052 945.725 340.084 935.592 317.666 924.209C242.094 885.838 170.168 835.933 112.365 770.343C63.3166 714.694 13.3071 640.268 1.76856 562.091C0.424633 552.977 -0.00292208 543.457 1.50098e-05 533.815C0.0084067 516.624 1.38506 499.044 1.38506 482.672C1.38506 419.608 1.38506 356.545 1.38506 293.473C1.38506 199.36 1.38506 105.247 1.38506 11.1341C1.38506 4.5676 5.99085 0.984371 10.9243 0.984371C13.376 0.984371 15.9098 1.8697 17.9998 3.72007C69.589 49.3121 130.722 69.1417 192.835 69.1417C262.067 69.1375 332.511 44.4994 392.281 3.42628C393.69 2.46124 395.44 1.97884 397.194 1.97884V24.863C352.731 54.4521 301.298 75.8257 249.995 85.2748C230.548 88.858 211.269 90.6706 192.257 90.6706C130.773 90.6706 72.2047 71.697 20.8517 32.2518C20.8517 131.84 20.8517 231.437 20.8517 331.021C20.8517 389.96 20.8517 448.899 20.8517 507.843C20.8517 522.939 20.8517 538.036 20.8517 553.137C20.8517 557.089 20.6402 557.597 20.5404 557.597C20.532 557.597 20.5236 557.593 20.5173 557.589C20.5941 557.782 20.8517 558.617 21.4529 561.621C40.6934 657.584 105.406 742.625 173.987 803.432C208.216 833.784 245.401 860.285 284.477 882.817C309.14 897.041 334.374 910.216 360.245 921.7C372.48 927.129 384.795 932.311 397.194 937.3V957.423Z" fill="#6ADDB1"/>
<path d="M387.225 659.166C276.577 659.166 186.875 569.472 186.875 458.815C186.875 348.162 276.577 258.459 387.225 258.459C390.569 258.459 393.893 258.543 397.195 258.702V465.159C380.722 478.418 364.245 491.681 347.772 504.944C315.548 485.152 283.324 465.364 251.104 445.572C247.432 443.319 243.811 442.338 240.417 442.338C222.4 442.338 210.572 469.913 229.927 481.804C266.184 504.075 302.44 526.338 338.7 548.61C341.935 550.595 345.275 551.463 348.577 551.463C354.116 551.463 359.533 549.021 364.123 545.329C375.146 536.455 386.168 527.58 397.195 518.71V658.919C393.893 659.082 390.569 659.166 387.225 659.166Z" fill="#7DE7C1"/>
<path d="M348.573 551.463C345.271 551.463 341.931 550.595 338.696 548.61C302.436 526.338 266.179 504.075 229.923 481.804C210.568 469.913 222.396 442.338 240.413 442.338C243.807 442.338 247.428 443.319 251.1 445.573C283.319 465.364 315.544 485.152 347.768 504.944C364.241 491.681 380.718 478.418 397.191 465.159V518.71C386.164 527.58 375.141 536.455 364.119 545.329C359.529 549.021 354.112 551.463 348.573 551.463Z" fill="white"/>
</svg>
