<svg width="111" height="106" viewBox="0 0 111 106" fill="none" xmlns="http://www.w3.org/2000/svg">
<g filter="url(#filter0_i_205_1304)">
<path d="M36.4836 31.9539L4.31778 36.6175L3.74807 36.7334C2.88564 36.9624 2.09942 37.4161 1.4697 38.0483C0.839981 38.6805 0.389326 39.4685 0.163755 40.3318C-0.0618155 41.1951 -0.0542205 42.1028 0.185764 42.9623C0.425749 43.8217 0.889526 44.602 1.52973 45.2236L24.8323 67.9061L19.3369 99.9458L19.2714 100.5C19.2186 101.392 19.4038 102.282 19.808 103.079C20.2123 103.876 20.8211 104.551 21.572 105.035C22.323 105.52 23.1892 105.796 24.0819 105.835C24.9745 105.874 25.8616 105.676 26.6524 105.26L55.4201 90.1348L84.1223 105.26L84.6265 105.492C85.4587 105.819 86.3631 105.92 87.2469 105.783C88.1308 105.646 88.9622 105.276 89.656 104.712C90.3498 104.147 90.8809 103.408 91.1949 102.571C91.5089 101.733 91.5945 100.827 91.4428 99.9458L85.9424 67.9061L109.255 45.2186L109.648 44.79C110.21 44.0981 110.578 43.2697 110.716 42.3891C110.853 41.5086 110.755 40.6073 110.43 39.7772C110.106 38.9471 109.567 38.2179 108.869 37.6637C108.171 37.1095 107.339 36.7503 106.457 36.6225L74.2911 31.9539L59.9122 2.8131C59.4962 1.96879 58.8521 1.25782 58.0528 0.760656C57.2536 0.263495 56.3311 0 55.3899 0C54.4486 0 53.5261 0.263495 52.7269 0.760656C51.9277 1.25782 51.2835 1.96879 50.8675 2.8131L36.4836 31.9539Z" fill="url(#paint0_linear_205_1304)"/>
</g>
<defs>
<filter id="filter0_i_205_1304" x="0" y="0" width="110.776" height="105.842" filterUnits="userSpaceOnUse" color-interpolation-filters="sRGB">
<feFlood flood-opacity="0" result="BackgroundImageFix"/>
<feBlend mode="normal" in="SourceGraphic" in2="BackgroundImageFix" result="shape"/>
<feColorMatrix in="SourceAlpha" type="matrix" values="0 0 0 0 0 0 0 0 0 0 0 0 0 0 0 0 0 0 127 0" result="hardAlpha"/>
<feOffset dy="-3"/>
<feComposite in2="hardAlpha" operator="arithmetic" k2="-1" k3="1"/>
<feColorMatrix type="matrix" values="0 0 0 0 0 0 0 0 0 0 0 0 0 0 0 0 0 0 0.1 0"/>
<feBlend mode="normal" in2="shape" result="effect1_innerShadow_205_1304"/>
</filter>
<linearGradient id="paint0_linear_205_1304" x1="72.9251" y1="32.4481" x2="20.9251" y2="105.948" gradientUnits="userSpaceOnUse">
<stop stop-color="#FFE600"/>
<stop offset="1" stop-color="#FF7700"/>
</linearGradient>
</defs>
</svg>
