<svg width="134" height="169" viewBox="0 0 134 169" fill="none" xmlns="http://www.w3.org/2000/svg">
<path d="M20.4021 112.934L20.2661 112.797L20.4021 112.661L20.5394 112.797L20.4021 112.934Z" fill="#3A7BC7"/>
<path d="M30.2446 93.2224L30.1353 93.1131L30.2446 93.0038L30.3539 93.1131L30.2446 93.2224Z" fill="#3A7BC7"/>
<path d="M59.7712 63.7771L59.5806 63.5864L59.6752 63.4904L59.8672 63.6824L59.7712 63.7771Z" fill="#3A7BC7"/>
<path d="M49.9285 63.6145L49.9019 63.5865L49.9285 63.5598L49.9565 63.5865L49.9285 63.6145Z" fill="#3A7BC7"/>
<path d="M128.617 64.493C119.157 34.9063 86.9726 18.9077 57.4979 29.6077C30.9886 39.2303 15.9598 67.9223 23.1686 95.1876C27.4073 111.22 38.1792 123.584 51.7579 130.364C55.7392 132.35 59.0539 135.377 61.4326 139.053C62.6419 140.924 63.6099 142.962 64.3006 145.12V145.122L123.138 126.309C122.271 123.593 121.863 120.77 121.926 117.969C122.01 114.202 122.943 110.474 124.747 107.093C131.495 94.4583 133.325 79.2143 128.617 64.493Z" fill="#ECD10A"/>
<path d="M133.347 146.988C133.553 146.432 133.579 145.807 133.386 145.2L131.714 139.975C131.482 139.249 130.979 138.687 130.353 138.364C129.725 138.04 128.975 137.956 128.25 138.188L67.0287 157.763C66.4327 157.953 65.9474 158.328 65.614 158.804C65.1367 159.485 64.97 160.373 65.2434 161.228L66.914 166.452C67.182 167.289 67.8127 167.909 68.5767 168.196C69.1354 168.404 69.766 168.433 70.378 168.239L131.599 148.663C132.442 148.395 133.065 147.757 133.347 146.988ZM127.679 136.403L66.458 155.979C65.846 156.173 65.2154 156.144 64.6567 155.935C63.8927 155.649 63.262 155.029 62.9954 154.193L61.3234 148.967C61.0514 148.113 61.2167 147.225 61.6927 146.544C62.0274 146.068 62.5127 145.695 63.1087 145.504L124.331 125.928C125.055 125.697 125.805 125.781 126.433 126.104C127.059 126.427 127.562 126.989 127.794 127.713L129.465 132.94C129.659 133.547 129.631 134.172 129.427 134.728C129.145 135.497 128.522 136.133 127.679 136.403Z" fill="#66CEF5"/>
<path d="M127.427 138.452L67.8514 157.5L67.2808 155.714L126.858 136.666L127.427 138.452Z" fill="#3053AC"/>
<path d="M101.617 112.006C76.6793 119.98 49.9979 106.228 42.0246 81.289C35.7979 61.813 42.8206 41.2756 58.0739 29.4143C57.8832 29.4823 57.6899 29.537 57.4979 29.6077C30.9886 39.2303 15.9598 67.9223 23.1686 95.1876C27.4073 111.22 38.1792 123.584 51.7579 130.364C55.7392 132.35 59.0539 135.377 61.4326 139.053C62.6419 140.924 63.6099 142.962 64.3006 145.12V145.122L123.138 126.309C122.271 123.593 121.863 120.77 121.926 117.969C122.01 114.202 122.943 110.474 124.747 107.093C128.422 100.213 130.625 92.557 131.121 84.6343C126.017 97.2263 115.57 107.544 101.617 112.006Z" fill="#EBAE0F"/>
<path d="M95.2156 38.665C94.741 41.8223 88.8476 43.5543 82.053 42.5343C75.257 41.513 70.133 38.125 70.6076 34.9676C71.081 31.8103 76.9743 30.0783 83.7703 31.0996C90.5663 32.1196 95.6903 35.5076 95.2156 38.665Z" fill="#E8EC17"/>
<path d="M116.205 52.8502C114.912 54.8156 110.436 54.1516 106.206 51.3689C101.977 48.5863 99.5969 44.7369 100.89 42.7716C102.184 40.8076 106.66 41.4702 110.889 44.2542C115.117 47.0356 117.498 50.8849 116.205 52.8502Z" fill="#E8EC17"/>
<path d="M82.953 152.672L67.029 157.763C66.433 157.953 65.9476 158.328 65.6143 158.804C65.137 159.485 64.9703 160.373 65.245 161.228L66.9143 166.452C67.1823 167.289 67.813 167.909 68.577 168.196C69.1356 168.404 69.7663 168.433 70.3783 168.239L99.5783 158.901C93.397 157.855 87.7317 155.729 82.953 152.672ZM62.9956 154.193L61.3236 148.967C61.0516 148.113 61.2156 147.225 61.693 146.544C62.0276 146.068 62.513 145.695 63.109 145.504L72.6183 142.463C74.7783 145.891 77.625 148.861 80.9916 151.332L66.4583 155.979C65.8463 156.173 65.2156 156.144 64.657 155.935C63.893 155.649 63.2623 155.029 62.9956 154.193Z" fill="#4275C4"/>
<path d="M123.558 127.72L106.631 133.132C106.093 133.305 105.795 133.881 105.967 134.421L106.023 134.596C106.195 135.136 106.773 135.433 107.311 135.26L124.239 129.848C124.778 129.676 125.075 129.099 124.903 128.56L124.847 128.384C124.674 127.845 124.098 127.548 123.558 127.72Z" fill="#86D7EA"/>
<path d="M127.553 140.21L110.625 145.622C110.086 145.794 109.789 146.372 109.961 146.91L110.018 147.086C110.19 147.625 110.766 147.924 111.306 147.75L128.233 142.338C128.773 142.166 129.07 141.589 128.897 141.05L128.841 140.874C128.669 140.336 128.092 140.037 127.553 140.21Z" fill="#86D7EA"/>
<path d="M114.6 34.1254L125.984 22.3067C126.756 21.5067 126.732 20.232 125.931 19.46C125.132 18.6907 123.858 18.712 123.086 19.5133L111.702 31.3334C110.93 32.1334 110.955 33.408 111.755 34.1787C112.307 34.7107 113.083 34.8653 113.766 34.6467C114.074 34.548 114.36 34.3747 114.6 34.1254ZM89.1258 18.3427L93.6498 2.56803C93.9552 1.50003 93.3378 0.385374 92.2698 0.0787075C91.2018 -0.227959 90.0858 0.389387 89.7805 1.45872L85.2565 17.2334C84.9498 18.3027 85.5685 19.416 86.6365 19.7227C87.0338 19.836 87.4365 19.8227 87.8032 19.7054C88.4218 19.508 88.9338 19.0147 89.1258 18.3427ZM20.1205 63.4787C20.3258 62.3854 19.6072 61.3334 18.5138 61.1294L2.38316 58.108C1.29089 57.9014 0.239824 58.6227 0.0346243 59.7147C-0.169509 60.808 0.549823 61.86 1.64302 62.064L17.7725 65.0867C18.1112 65.1494 18.4472 65.124 18.7538 65.0254C19.4365 64.808 19.9792 64.2307 20.1205 63.4787ZM32.1925 37.1307C32.8858 36.2614 32.7418 34.9947 31.8725 34.3027L19.0365 24.0787C18.1658 23.3854 16.8982 23.5294 16.2081 24.3987C15.5154 25.268 15.6592 26.5347 16.5284 27.2267L29.3645 37.452C29.9112 37.8867 30.6138 37.9907 31.2338 37.7934C31.5992 37.676 31.9365 37.4534 32.1925 37.1307ZM57.4405 22.2493C56.3805 22.588 55.2471 22.004 54.9098 20.9454L49.9125 5.31471C49.5738 4.25604 50.1578 3.12271 51.2165 2.78405C52.2752 2.44538 53.4072 3.02938 53.7458 4.08938L58.7445 19.72C59.0818 20.7787 58.4978 21.9107 57.4405 22.2493Z" fill="#ECD10A"/>
</svg>
