<svg width="132" height="70" viewBox="0 0 132 70" fill="none" xmlns="http://www.w3.org/2000/svg">
<g filter="url(#filter0_i_214_229)">
<g filter="url(#filter1_i_214_229)">
<path d="M30.3465 45.4136C26.8429 51.4677 24.8382 58.497 24.8382 65.9953H0C0 53.9727 3.21519 42.7012 8.83228 32.9925L24.9692 37.538L30.3465 45.4136Z" fill="#EE254D"/>
<path d="M51.9153 27.3104C42.7781 30.6365 35.1522 37.1069 30.3465 45.4136L8.83228 32.9925C16.538 19.6735 28.7664 9.29719 43.417 3.96368L50.6949 13.6554L51.9153 27.3104Z" fill="#EB9B2D"/>
<path d="M88.5728 3.96364V16.981L80.0749 27.3104C75.6823 25.7106 70.9407 24.8383 65.9949 24.8383C61.0491 24.8383 56.3075 25.7106 51.9153 27.3104L43.417 3.96364C50.4607 1.39945 58.0642 1.58655e-05 65.9949 1.58655e-05C73.9256 1.58655e-05 81.5291 1.39945 88.5728 3.96364Z" fill="#E4DA2C"/>
<path d="M131.99 65.9953H107.151C107.151 58.497 105.147 51.4677 101.643 45.4136L123.157 32.9925C128.774 42.7012 131.99 53.9727 131.99 65.9953Z" fill="#56C14D"/>
<path d="M123.157 32.9925L114.34 44.6808L101.643 45.4136C96.8371 37.1069 89.2115 30.6365 80.0747 27.3104L88.5726 3.96368C103.223 9.29719 115.451 19.6735 123.157 32.9925Z" fill="#7ECD47"/>
</g>
<g filter="url(#filter2_d_214_229)">
<path d="M72.6499 45.8521C107.524 36.1599 116.423 38.4829 116.423 38.4829C116.423 38.4829 109.999 45.0646 75.1246 54.7568L72.6499 45.8521Z" fill="#1A1F29"/>
</g>
<g filter="url(#filter3_i_214_229)">
<path d="M83.493 52.4982C83.493 62.1621 75.6587 69.9964 65.9948 69.9964C56.3308 69.9964 48.4966 62.1621 48.4966 52.4982C48.4966 42.8342 56.3308 35 65.9948 35C75.6587 35 83.493 42.8342 83.493 52.4982Z" fill="#C2C3C1"/>
<path d="M81.295 52.4982C81.295 60.9479 74.4451 67.7982 65.995 67.7982C57.5449 67.7982 50.6951 60.9479 50.6951 52.4982C50.6951 44.0481 57.5449 37.1978 65.995 37.1978C74.4451 37.1978 81.295 44.0481 81.295 52.4982Z" fill="#989EA8"/>
</g>
</g>
<defs>
<filter id="filter0_i_214_229" x="0" y="0" width="131.99" height="70.3484" filterUnits="userSpaceOnUse" color-interpolation-filters="sRGB">
<feFlood flood-opacity="0" result="BackgroundImageFix"/>
<feBlend mode="normal" in="SourceGraphic" in2="BackgroundImageFix" result="shape"/>
<feColorMatrix in="SourceAlpha" type="matrix" values="0 0 0 0 0 0 0 0 0 0 0 0 0 0 0 0 0 0 127 0" result="hardAlpha"/>
<feOffset dy="0.351973"/>
<feGaussianBlur stdDeviation="0.175986"/>
<feComposite in2="hardAlpha" operator="arithmetic" k2="-1" k3="1"/>
<feColorMatrix type="matrix" values="0 0 0 0 0 0 0 0 0 0 0 0 0 0 0 0 0 0 0.25 0"/>
<feBlend mode="normal" in2="shape" result="effect1_innerShadow_214_229"/>
</filter>
<filter id="filter1_i_214_229" x="0" y="-0.351973" width="131.99" height="66.3473" filterUnits="userSpaceOnUse" color-interpolation-filters="sRGB">
<feFlood flood-opacity="0" result="BackgroundImageFix"/>
<feBlend mode="normal" in="SourceGraphic" in2="BackgroundImageFix" result="shape"/>
<feColorMatrix in="SourceAlpha" type="matrix" values="0 0 0 0 0 0 0 0 0 0 0 0 0 0 0 0 0 0 127 0" result="hardAlpha"/>
<feOffset dy="-12.0551"/>
<feGaussianBlur stdDeviation="0.175986"/>
<feComposite in2="hardAlpha" operator="arithmetic" k2="-1" k3="1"/>
<feColorMatrix type="matrix" values="0 0 0 0 0 0 0 0 0 0 0 0 0 0 0 0 0 0 0.25 0"/>
<feBlend mode="normal" in2="shape" result="effect1_innerShadow_214_229"/>
</filter>
<filter id="filter2_d_214_229" x="72.2979" y="38.239" width="44.4771" height="21.9734" filterUnits="userSpaceOnUse" color-interpolation-filters="sRGB">
<feFlood flood-opacity="0" result="BackgroundImageFix"/>
<feColorMatrix in="SourceAlpha" type="matrix" values="0 0 0 0 0 0 0 0 0 0 0 0 0 0 0 0 0 0 127 0" result="hardAlpha"/>
<feOffset dy="5.1036"/>
<feGaussianBlur stdDeviation="0.175986"/>
<feComposite in2="hardAlpha" operator="out"/>
<feColorMatrix type="matrix" values="0 0 0 0 0 0 0 0 0 0 0 0 0 0 0 0 0 0 0.25 0"/>
<feBlend mode="normal" in2="BackgroundImageFix" result="effect1_dropShadow_214_229"/>
<feBlend mode="normal" in="SourceGraphic" in2="effect1_dropShadow_214_229" result="shape"/>
</filter>
<filter id="filter3_i_214_229" x="48.4966" y="34.648" width="34.9963" height="35.3484" filterUnits="userSpaceOnUse" color-interpolation-filters="sRGB">
<feFlood flood-opacity="0" result="BackgroundImageFix"/>
<feBlend mode="normal" in="SourceGraphic" in2="BackgroundImageFix" result="shape"/>
<feColorMatrix in="SourceAlpha" type="matrix" values="0 0 0 0 0 0 0 0 0 0 0 0 0 0 0 0 0 0 127 0" result="hardAlpha"/>
<feOffset dy="-11.2631"/>
<feGaussianBlur stdDeviation="0.175986"/>
<feComposite in2="hardAlpha" operator="arithmetic" k2="-1" k3="1"/>
<feColorMatrix type="matrix" values="0 0 0 0 0 0 0 0 0 0 0 0 0 0 0 0 0 0 0.25 0"/>
<feBlend mode="normal" in2="shape" result="effect1_innerShadow_214_229"/>
</filter>
</defs>
</svg>
