<svg width="1050" height="1159" viewBox="0 0 1050 1159" fill="none" xmlns="http://www.w3.org/2000/svg">
<mask id="mask0_203_1083" style="mask-type:luminance" maskUnits="userSpaceOnUse" x="0" y="0" width="1050" height="1159">
<path d="M1049.59 948.125C1049.59 1027.63 984.736 1096.19 903.613 1101.34L0 1158.71C95.549 1152.65 171.845 1077.92 171.845 991.707V-2.87183e-05L1049.59 33.5763V948.125Z" fill="white"/>
</mask>
<g mask="url(#mask0_203_1083)">
<path d="M1049.59 948.125C1049.59 1027.63 984.736 1096.19 903.613 1101.34L0 1158.71C95.549 1152.65 171.845 1077.92 171.845 991.707V-2.87183e-05L1049.59 33.5763V948.125Z" fill="url(#paint0_linear_203_1083)"/>
</g>
<mask id="mask1_203_1083" style="mask-type:luminance" maskUnits="userSpaceOnUse" x="284" y="88" width="350" height="332">
<path d="M633.275 256.883C633.275 346.693 557.019 419.412 461.468 419.308C364.222 419.198 284.116 343.954 284.116 251.246C284.116 158.538 364.222 85.8845 461.468 88.9136C557.019 91.8934 633.275 167.078 633.275 256.883Z" fill="white"/>
</mask>
<g mask="url(#mask1_203_1083)">
<path d="M633.275 256.883C633.275 346.693 557.019 419.412 461.468 419.308C364.222 419.198 284.116 343.954 284.116 251.246C284.116 158.538 364.222 85.8845 461.468 88.9136C557.019 91.8934 633.275 167.078 633.275 256.883Z" fill="url(#paint1_linear_203_1083)"/>
</g>
<path d="M992.8 252.826L677.158 247.429V192.557L992.8 199.555V252.826Z" fill="#D8DEE8"/>
<path d="M992.8 296.801L677.158 292.733V265.297L992.8 270.169V296.801Z" fill="#D8DEE8"/>
<path d="M992.8 340.777L677.158 338.038V310.602L992.8 314.145V340.777Z" fill="#D8DEE8"/>
<path d="M992.8 576.539L313.729 585.948V558.698L992.8 550.95V576.539Z" fill="#D8DEE8"/>
<mask id="mask2_203_1083" style="mask-type:luminance" maskUnits="userSpaceOnUse" x="258" y="558" width="32" height="29">
<path d="M258.331 586.719L289.086 586.293V558.982L258.331 559.332V586.719Z" fill="white"/>
</mask>
<g mask="url(#mask2_203_1083)">
<path d="M258.331 586.719L289.086 586.293V558.982L258.331 559.332V586.719Z" fill="url(#paint2_linear_203_1083)"/>
</g>
<path d="M992.8 618.792L313.729 630.946V603.696L992.8 593.198V618.792Z" fill="#D8DEE8"/>
<mask id="mask3_203_1083" style="mask-type:luminance" maskUnits="userSpaceOnUse" x="258" y="604" width="32" height="28">
<path d="M258.331 631.936L289.086 631.384V604.073L258.331 604.549V631.936Z" fill="white"/>
</mask>
<g mask="url(#mask3_203_1083)">
<path d="M258.331 631.936L289.086 631.384V604.073L258.331 604.549V631.936Z" fill="url(#paint3_linear_203_1083)"/>
</g>
<path d="M992.8 661.04L313.729 675.939V648.688L992.8 635.452V661.04Z" fill="#D8DEE8"/>
<mask id="mask4_203_1083" style="mask-type:luminance" maskUnits="userSpaceOnUse" x="258" y="649" width="32" height="29">
<path d="M258.331 677.153L289.086 676.48V649.17L258.331 649.766V677.153Z" fill="white"/>
</mask>
<g mask="url(#mask4_203_1083)">
<path d="M258.331 677.153L289.086 676.48V649.17L258.331 649.766V677.153Z" fill="url(#paint4_linear_203_1083)"/>
</g>
<path d="M992.8 703.293L313.729 720.932V693.681L992.8 677.705V703.293Z" fill="#D8DEE8"/>
<mask id="mask5_203_1083" style="mask-type:luminance" maskUnits="userSpaceOnUse" x="258" y="694" width="32" height="29">
<path d="M258.331 722.37L289.086 721.571V694.261L258.331 694.983V722.37Z" fill="white"/>
</mask>
<g mask="url(#mask5_203_1083)">
<path d="M258.331 722.37L289.086 721.571V694.261L258.331 694.983V722.37Z" fill="url(#paint5_linear_203_1083)"/>
</g>
<path d="M992.8 787.794L258.331 812.803V785.421L992.8 762.206V787.794Z" fill="#D8DEE8"/>
<path d="M992.8 830.042L258.331 858.02V830.638L992.8 804.454V830.042Z" fill="#D8DEE8"/>
<path d="M992.8 872.296L258.331 903.242V875.855L992.8 846.708V872.296Z" fill="#D8DEE8"/>
<path d="M992.8 914.544L258.331 948.459V921.072L992.8 888.955V914.544Z" fill="#D8DEE8"/>
<path d="M534.866 347.111C535.061 349.064 534.866 350.919 534.28 352.677C533.889 353.849 533.303 354.825 532.522 355.606C531.936 356.387 531.155 357.168 530.179 357.95C528.421 359.121 526.273 360.195 523.734 361.172C522.172 361.562 520.61 361.855 519.048 362.05C517.681 362.441 516.216 362.441 514.654 362.05C511.529 361.855 508.795 360.683 506.452 358.535C503.132 355.801 500.398 352.775 498.25 349.455C497.274 347.892 496.2 346.135 495.028 344.182C493.856 342.229 492.782 340.179 491.806 338.031L459.291 276.224C457.729 276.224 456.167 276.321 454.604 276.517C453.042 276.517 451.48 276.614 449.918 276.81C445.817 277.2 441.911 277.298 438.201 277.103C434.686 276.907 430.975 276.907 427.07 277.103H421.504V330.122C421.504 331.684 421.406 333.149 421.211 334.516C421.211 335.883 421.211 337.347 421.211 338.909C421.211 339.886 421.114 341.155 420.918 342.718C420.918 344.28 420.821 345.744 420.625 347.111C420.235 349.259 419.356 351.505 417.989 353.849C416.622 355.997 414.767 357.852 412.423 359.414C408.323 361.953 403.343 362.636 397.484 361.465C394.946 360.879 392.505 359.902 390.161 358.535C389.38 357.95 388.697 357.266 388.111 356.485C387.525 355.509 387.037 354.532 386.646 353.556C386.256 352.579 385.865 351.603 385.474 350.626C385.279 349.455 384.986 348.381 384.596 347.404C384.01 345.451 383.717 343.596 383.717 341.839V175.458C383.717 174.286 383.717 173.115 383.717 171.943C383.912 170.576 384.108 169.404 384.303 168.428C384.498 166.28 385.182 164.132 386.353 161.984C386.939 159.64 387.916 157.98 389.282 157.004C390.454 155.832 392.212 154.856 394.555 154.075C397.094 153.098 400.707 152.708 405.393 152.903C414.181 153.098 422.871 153.196 431.463 153.196C440.056 153.196 448.648 153.391 457.241 153.782C462.904 154.172 468.86 154.856 475.109 155.832C481.553 156.613 487.51 158.078 492.977 160.226C496.493 161.593 499.715 162.96 502.644 164.327C506.354 166.475 509.284 168.526 511.432 170.478C518.267 176.727 523.442 184.246 526.957 193.034C530.472 201.821 532.229 210.707 532.229 219.69C532.229 230.235 529.691 239.901 524.613 248.689C519.731 257.477 511.822 264.019 500.886 268.315C500.496 268.705 499.91 268.998 499.129 269.194C498.543 269.194 498.055 269.291 497.664 269.487L524.613 323.677L527.25 328.364C527.64 329.145 528.128 330.024 528.714 331.001C529.3 331.977 529.788 332.953 530.179 333.93C530.765 334.906 531.253 335.98 531.643 337.152C532.229 338.324 532.815 339.398 533.401 340.374C533.987 343.108 534.475 345.354 534.866 347.111ZM461.635 242.831C465.15 242.831 468.47 242.245 471.594 241.073C474.914 239.706 477.843 237.948 480.382 235.8C483.116 233.652 485.361 231.211 487.119 228.477C488.877 225.548 489.853 222.424 490.048 219.104C490.829 209.34 488.291 202.114 482.432 197.427C476.574 192.545 468.86 189.909 459.291 189.518C453.628 189.128 447.379 188.933 440.544 188.933C433.905 188.933 427.558 188.933 421.504 188.933C421.699 196.939 421.699 205.141 421.504 213.538C421.504 221.74 421.504 231.504 421.504 242.831H461.635Z" fill="white"/>
<defs>
<linearGradient id="paint0_linear_203_1083" x1="762.244" y1="177.565" x2="187.247" y2="1366.68" gradientUnits="userSpaceOnUse">
<stop stop-color="white"/>
<stop offset="0.996403" stop-color="#EBEFF2"/>
<stop offset="1" stop-color="#EBEFF2"/>
</linearGradient>
<linearGradient id="paint1_linear_203_1083" x1="540.933" y1="32.696" x2="294.504" y2="695.704" gradientUnits="userSpaceOnUse">
<stop stop-color="#FF9085"/>
<stop offset="1" stop-color="#FB6FBB"/>
</linearGradient>
<linearGradient id="paint2_linear_203_1083" x1="264.848" y1="548.845" x2="320.035" y2="698.352" gradientUnits="userSpaceOnUse">
<stop stop-color="#FF9085"/>
<stop offset="1" stop-color="#FB6FBB"/>
</linearGradient>
<linearGradient id="paint3_linear_203_1083" x1="250.102" y1="554.05" x2="305.111" y2="703.072" gradientUnits="userSpaceOnUse">
<stop stop-color="#FF9085"/>
<stop offset="1" stop-color="#FB6FBB"/>
</linearGradient>
<linearGradient id="paint4_linear_203_1083" x1="264.903" y1="639.312" x2="319.732" y2="787.848" gradientUnits="userSpaceOnUse">
<stop stop-color="#FF9085"/>
<stop offset="1" stop-color="#FB6FBB"/>
</linearGradient>
<linearGradient id="paint5_linear_203_1083" x1="250.255" y1="644.779" x2="304.906" y2="792.831" gradientUnits="userSpaceOnUse">
<stop stop-color="#FF9085"/>
<stop offset="1" stop-color="#FB6FBB"/>
</linearGradient>
</defs>
</svg>
