<svg width="92" height="90" viewBox="0 0 92 90" fill="none" xmlns="http://www.w3.org/2000/svg">
<path d="M19.7036 38.3385C20.5376 37.9828 21.1806 37.2598 21.4303 36.3753L22.0324 35.8858L22.6054 36.3753C22.3066 37.8799 21.1952 39.0925 19.7476 39.5381L19.7036 38.3385Z" fill="#949494"/>
<path d="M17.2999 39.5381C15.8521 39.0925 14.7409 37.8799 14.4421 36.3753L15.0151 35.8858L15.6172 36.3753C15.8669 37.2598 16.5099 37.9828 17.3439 38.3385L17.2999 39.5381Z" fill="#949494"/>
<path d="M17.2981 40.6183V38.66C17.2981 37.9827 17.8466 37.4359 18.5237 37.4359C18.8614 37.4359 19.1682 37.5748 19.3886 37.795C19.6089 38.0153 19.7476 38.3204 19.7476 38.66V40.6183H17.2981Z" fill="#949494"/>
<path d="M12.7355 7.00016L13.2202 7.48966V35.3961L12.7355 36.2023C12.4809 36.1044 12.2426 35.9624 12.0305 35.783L3.2033 28.3135C2.64022 27.8369 2.31543 27.1368 2.31543 26.4007V8.15711C2.31543 7.51906 2.83433 7.00016 3.47407 7.00016H12.7355Z" fill="#EE1F4C"/>
<path d="M34.731 8.15711V26.4007C34.731 27.1368 34.4063 27.8369 33.8431 28.3135L25.0191 35.783C24.807 35.9624 24.5687 36.1044 24.3124 36.2023L23.6646 35.5593V7.97932L24.3124 7.00016H33.5739C34.2138 7.00016 34.731 7.51906 34.731 8.15711Z" fill="#EE1F4C"/>
<path d="M24.3124 7.00011V36.2022C24.0236 36.3164 23.7136 36.3752 23.3986 36.3752H13.6492C13.3343 36.3752 13.0241 36.3164 12.7354 36.2022V7.00011H24.3124Z" fill="#E6F1ED"/>
<path d="M12.7353 32.563V36.2023C12.4807 36.1044 12.2424 35.9624 12.0303 35.783L5.77173 30.4873C7.44296 31.1107 9.9822 31.9641 12.7353 32.563Z" fill="#C81645"/>
<path d="M24.3124 31.561V36.2022C24.0236 36.3164 23.7136 36.3752 23.3986 36.3752H13.6492C13.3343 36.3752 13.0241 36.3164 12.7354 36.2022V32.563C12.897 32.5973 13.0585 32.6315 13.2201 32.6643C15.0004 33.0282 16.8527 33.2746 18.6055 33.2746C20.4381 33.2746 22.1485 32.7246 23.6645 31.9232C23.8849 31.809 24.1002 31.6867 24.3124 31.561Z" fill="#B7DBD2"/>
<path d="M34.731 8.15711V26.4007C34.731 27.1368 34.4064 27.8369 33.8431 28.3135L25.0192 35.783C24.8071 35.9624 24.5688 36.1044 24.3125 36.2023V31.5611C26.2791 30.3941 27.8769 28.8553 28.936 27.6819C29.8531 26.6635 30.3557 25.3384 30.3557 23.9658V12.57C30.3557 9.55742 27.9616 7.06866 24.949 7.00339C24.8496 7.00185 24.7483 7.00016 24.6439 7.00016H33.5739C34.2138 7.00016 34.731 7.51906 34.731 8.15711Z" fill="#C81645"/>
<path d="M8.56768 8.63211H4.25545C4.06904 8.63211 3.91772 8.78327 3.91772 8.96968V14.1682C3.91772 14.5321 4.41631 14.64 4.56377 14.3072C5.25662 12.7439 6.56226 10.523 8.74193 9.25954C9.0384 9.08775 8.91033 8.63211 8.56768 8.63211Z" fill="#F364A0"/>
<path d="M37.0463 58.8149C37.0463 69.045 28.7531 77.338 18.5231 77.338C8.29304 77.338 0 69.045 0 58.8149C0 48.5848 8.29304 40.2919 18.5231 40.2919C28.7531 40.2919 37.0463 48.5848 37.0463 58.8149Z" fill="#C0C0C0"/>
<path d="M37.0459 58.8155C37.0459 69.0444 28.7536 77.338 18.5234 77.338C13.1173 77.338 8.25295 75.0229 4.86816 71.3286C8.16229 74.3411 13.3002 76.3207 18.1167 76.3207C28.347 76.3207 36.1209 68.4444 36.1209 58.2141C36.1209 53.3914 34.0426 48.4375 31.0195 45.142C34.7229 48.53 37.0459 53.4017 37.0459 58.8155Z" fill="#949494"/>
<path d="M18.5231 75.691C9.21699 75.691 1.64697 68.121 1.64697 58.815C1.64697 49.5091 9.21699 41.939 18.5231 41.939C27.829 41.939 35.399 49.5091 35.399 58.815C35.399 68.121 27.829 75.691 18.5231 75.691Z" fill="#949494"/>
<path d="M34.3666 58.8147C34.3666 67.5509 27.2601 74.6588 18.5237 74.6588C16.0459 74.6588 13.6995 74.0876 11.6099 73.0694C9.42902 72.0074 7.52735 70.4604 6.04546 68.5681C5.36893 67.7047 4.77999 66.7693 4.29156 65.7746C3.26023 63.6731 2.67944 61.3101 2.67944 58.8147C2.67944 56.9638 2.999 55.1875 3.58425 53.5353C5.34753 48.5588 9.53184 44.7185 14.7132 43.4353C15.9337 43.1325 17.211 42.9717 18.5237 42.9717C21.446 42.9717 24.185 43.7666 26.5375 45.1513C27.5864 45.7698 28.5585 46.5044 29.4362 47.3393C31.0908 48.9134 32.4058 50.84 33.2595 52.9983C33.9739 54.7996 34.3666 56.7616 34.3666 58.8147Z" fill="#C0C0C0"/>
<path d="M26.5375 45.1514L4.29156 65.7747C3.26023 63.6732 2.67944 61.3102 2.67944 58.8148C2.67944 56.964 2.999 55.1876 3.58425 53.5354L14.7132 43.4354C15.9337 43.1326 17.211 42.9718 18.5237 42.9718C21.446 42.9718 24.185 43.7667 26.5375 45.1514Z" fill="#DDDDDD"/>
<path d="M33.2593 52.9984L11.6096 73.0695C9.42872 72.0075 7.52706 70.4605 6.04517 68.5682L29.4359 47.3394C31.0905 48.9135 32.4056 50.8401 33.2593 52.9984Z" fill="#DDDDDD"/>
<path d="M18.5237 38.4976C18.5237 38.723 18.3776 38.9055 18.1973 38.9055C18.0171 38.9055 17.8708 38.723 17.8708 38.4976C17.8708 38.2722 18.0171 38.0895 18.1973 38.0895C18.3776 38.0895 18.5237 38.2722 18.5237 38.4976Z" fill="#949494"/>
<path d="M78.8921 41.6859C79.5224 41.417 80.0084 40.8706 80.1971 40.202L80.6522 39.8321L81.0853 40.202C80.8594 41.3393 80.0194 42.2557 78.9254 42.5925L78.8921 41.6859Z" fill="#AB5600"/>
<path d="M77.0754 42.5925C75.9812 42.2557 75.1413 41.3393 74.9155 40.202L75.3486 39.8321L75.8037 40.202C75.9924 40.8706 76.4783 41.417 77.1087 41.6859L77.0754 42.5925Z" fill="#AB5600"/>
<path d="M77.0742 43.4089V41.9288C77.0742 41.4169 77.4887 41.0037 78.0005 41.0037C78.2558 41.0037 78.4877 41.1086 78.6543 41.2751C78.8207 41.4416 78.9256 41.6722 78.9256 41.9288V43.4089H77.0742Z" fill="#AB5600"/>
<path d="M73.6255 18L73.9919 18.37V39.4619L73.6255 40.0712C73.4331 39.9972 73.253 39.8899 73.0927 39.7543L66.4211 34.1088C65.9955 33.7486 65.75 33.2194 65.75 32.6631V18.8745C65.75 18.3922 66.1422 18 66.6257 18H73.6255Z" fill="#EE1F4C"/>
<path d="M90.25 18.8745V32.6631C90.25 33.2194 90.0047 33.7486 89.579 34.1088L82.9098 39.7543C82.7495 39.8899 82.5694 39.9972 82.3757 40.0712L81.886 39.5852V18.7401L82.3757 18H89.3755C89.8591 18 90.25 18.3922 90.25 18.8745Z" fill="#EE1F4C"/>
<path d="M82.3755 18.0001V40.0713C82.1572 40.1576 81.9229 40.202 81.6849 40.202H74.3162C74.0782 40.202 73.8437 40.1576 73.6255 40.0713V18.0001H82.3755Z" fill="#E6F1ED"/>
<path d="M73.6254 37.3206V40.0712C73.433 39.9972 73.2529 39.8899 73.0925 39.7543L68.3623 35.7517C69.6254 36.2229 71.5446 36.8679 73.6254 37.3206Z" fill="#C81645"/>
<path d="M82.3755 36.5634V40.0713C82.1572 40.1576 81.9229 40.202 81.6849 40.202H74.3162C74.0782 40.202 73.8437 40.1576 73.6255 40.0713V37.3207C73.7476 37.3466 73.8697 37.3725 73.9918 37.3973C75.3375 37.6723 76.7374 37.8585 78.0622 37.8585C79.4472 37.8585 80.74 37.4429 81.8858 36.8372C82.0524 36.7509 82.2151 36.6584 82.3755 36.5634Z" fill="#B7DBD2"/>
<path d="M90.2499 18.8745V32.6631C90.2499 33.2194 90.0045 33.7486 89.5788 34.1088L82.9096 39.7543C82.7493 39.8899 82.5692 39.9972 82.3755 40.0712V36.5633C83.8619 35.6813 85.0695 34.5183 85.8699 33.6314C86.5631 32.8617 86.943 31.8602 86.943 30.8228V22.2098C86.943 19.9328 85.1335 18.0518 82.8566 18.0025C82.7814 18.0013 82.7049 18 82.626 18H89.3753C89.859 18 90.2499 18.3922 90.2499 18.8745Z" fill="#C81645"/>
<path d="M70.4756 19.2335H67.2164C67.0755 19.2335 66.9612 19.3477 66.9612 19.4886V23.4177C66.9612 23.6928 67.338 23.7743 67.4495 23.5228C67.9731 22.3412 68.9599 20.6626 70.6073 19.7077C70.8314 19.5779 70.7346 19.2335 70.4756 19.2335Z" fill="#F364A0"/>
<path d="M91.9998 57.162C91.9998 64.8939 85.7318 71.1619 77.9999 71.1619C70.2679 71.1619 64 64.8939 64 57.162C64 49.43 70.2679 43.1622 77.9999 43.1622C85.7318 43.1622 91.9998 49.43 91.9998 57.162Z" fill="#C76F17"/>
<path d="M91.9996 57.1624C91.9996 64.8935 85.7322 71.1619 78.0001 71.1619C73.9142 71.1619 70.2377 69.4121 67.6794 66.6199C70.1692 68.8968 74.0524 70.393 77.6928 70.393C85.4249 70.393 91.3005 64.44 91.3005 56.7079C91.3005 53.0629 89.7296 49.3187 87.4448 46.8279C90.2439 49.3886 91.9996 53.0707 91.9996 57.1624Z" fill="#AB5600"/>
<path d="M77.9999 69.9171C70.9663 69.9171 65.2449 64.1957 65.2449 57.1621C65.2449 50.1286 70.9663 44.4072 77.9999 44.4072C85.0334 44.4072 90.7548 50.1286 90.7548 57.1621C90.7548 64.1957 85.0334 69.9171 77.9999 69.9171Z" fill="#AB5600"/>
<path d="M89.9745 57.1618C89.9745 63.7647 84.6033 69.1368 78.0004 69.1368C76.1276 69.1368 74.3542 68.7051 72.7748 67.9355C71.1265 67.1329 69.6892 65.9636 68.5692 64.5334C68.0579 63.8809 67.6127 63.1739 67.2436 62.4221C66.4641 60.8338 66.0251 59.0478 66.0251 57.1618C66.0251 55.7629 66.2667 54.4203 66.709 53.1716C68.0417 49.4103 71.2042 46.5078 75.1203 45.5379C76.0428 45.3091 77.0082 45.1875 78.0004 45.1875C80.209 45.1875 82.2792 45.7883 84.0572 46.8349C84.85 47.3024 85.5847 47.8576 86.2481 48.4886C87.4986 49.6783 88.4925 51.1344 89.1378 52.7657C89.6777 54.1271 89.9745 55.61 89.9745 57.1618Z" fill="#C76F17"/>
<path d="M84.0572 46.8351L67.2436 62.4222C66.4641 60.8339 66.0251 59.048 66.0251 57.162C66.0251 55.7631 66.2667 54.4205 66.709 53.1718L75.1203 45.5381C76.0428 45.3093 77.0082 45.1877 78.0004 45.1877C80.209 45.1877 82.2792 45.7885 84.0572 46.8351Z" fill="white" fill-opacity="0.22"/>
<path d="M89.1377 52.766L72.7747 67.9358C71.1264 67.1331 69.6891 65.9639 68.5691 64.5337L86.248 48.4889C87.4985 49.6786 88.4924 51.1347 89.1377 52.766Z" fill="white" fill-opacity="0.22"/>
<path d="M78.0002 41.8061C78.0002 41.9764 77.8898 42.1144 77.7536 42.1144C77.6174 42.1144 77.5068 41.9764 77.5068 41.8061C77.5068 41.6357 77.6174 41.4977 77.7536 41.4977C77.8898 41.4977 78.0002 41.6357 78.0002 41.8061Z" fill="#AB5600"/>
<path d="M49.9978 39.7585C51.0559 39.3072 51.8716 38.3899 52.1884 37.2678L52.9523 36.6468L53.6792 37.2678C53.3002 39.1767 51.8902 40.715 50.0537 41.2804L49.9978 39.7585Z" fill="#F5B219"/>
<path d="M46.9481 41.2804C45.1114 40.715 43.7016 39.1767 43.3225 37.2678L44.0494 36.6468L44.8133 37.2678C45.1301 38.3899 45.9458 39.3072 47.0039 39.7585L46.9481 41.2804Z" fill="#F5B219"/>
<path d="M46.946 42.6509V40.1664C46.946 39.3071 47.6419 38.6135 48.5009 38.6135C48.9294 38.6135 49.3186 38.7896 49.5983 39.0691C49.8777 39.3485 50.0537 39.7356 50.0537 40.1664V42.6509H46.946Z" fill="#E49D1B"/>
<path d="M41.1573 -1.9074e-05L41.7722 0.621008V36.0255L41.1573 37.0482C40.8342 36.924 40.5319 36.744 40.2628 36.5162L29.0639 27.0398C28.3496 26.4352 27.9375 25.547 27.9375 24.6131V1.46778C27.9375 0.658306 28.5958 -1.9074e-05 29.4074 -1.9074e-05H41.1573Z" fill="#EE1F4C"/>
<path d="M69.0627 1.46778V24.6131C69.0627 25.547 68.6509 26.4352 67.9363 27.0398L56.7415 36.5162C56.4724 36.744 56.1701 36.924 55.8449 37.0482L55.0229 36.2325V1.24223L55.8449 -1.9074e-05H67.5947C68.4065 -1.9074e-05 69.0627 0.658306 69.0627 1.46778Z" fill="#EE1F4C"/>
<path d="M55.8448 -4.22112e-05V37.0482C55.4784 37.1931 55.0851 37.2677 54.6855 37.2677H42.3167C41.9171 37.2677 41.5236 37.1931 41.1572 37.0482V-4.22112e-05H55.8448Z" fill="#E6F1ED"/>
<path d="M41.157 32.4312V37.0482C40.834 36.924 40.5317 36.744 40.2626 36.5162L32.3225 29.7977C34.4428 30.5886 37.6643 31.6713 41.157 32.4312Z" fill="#C81645"/>
<path d="M55.8448 31.16V37.0482C55.4784 37.1931 55.0851 37.2677 54.6855 37.2677H42.3167C41.9171 37.2677 41.5236 37.1931 41.1572 37.0482V32.4312C41.3623 32.4747 41.5671 32.5181 41.7722 32.5597C44.0309 33.0213 46.3808 33.334 48.6046 33.334C50.9295 33.334 53.0996 32.6362 55.0228 31.6195C55.3025 31.4746 55.5757 31.3194 55.8448 31.16Z" fill="#B7DBD2"/>
<path d="M69.0625 1.46778V24.6131C69.0625 25.547 68.6507 26.4352 67.9361 27.0398L56.7413 36.5162C56.4722 36.744 56.1699 36.924 55.8447 37.0482V31.16C58.3397 29.6795 60.3669 27.7272 61.7104 26.2385C62.874 24.9465 63.5116 23.2654 63.5116 21.524V7.06635C63.5116 3.24434 60.4743 0.0868841 56.6522 0.00408125C56.5261 0.00212835 56.3976 -1.9074e-05 56.2652 -1.9074e-05H67.5945C68.4064 -1.9074e-05 69.0625 0.658306 69.0625 1.46778Z" fill="#C81645"/>
<path d="M35.8698 2.07057H30.3989C30.1624 2.07057 29.9705 2.26235 29.9705 2.49884V9.09417C29.9705 9.55583 30.603 9.69273 30.7901 9.27052C31.6691 7.28715 33.3255 4.46951 36.0908 2.86658C36.467 2.64863 36.3045 2.07057 35.8698 2.07057Z" fill="#F364A0"/>
<path d="M72 65.7366C72 78.7154 61.4786 89.2366 48.5 89.2366C35.5212 89.2366 25 78.7154 25 65.7366C25 52.7578 35.5212 42.2368 48.5 42.2368C61.4786 42.2368 72 52.7578 72 65.7366Z" fill="#F7B019"/>
<path d="M71.9994 65.7374C71.9994 78.7146 61.4791 89.2366 48.5002 89.2366C41.6416 89.2366 35.4703 86.2995 31.176 81.6125C35.3552 85.4345 41.8736 87.9459 47.9842 87.9459C60.9632 87.9459 70.8259 77.9533 70.8259 64.9744C70.8259 58.8559 68.1891 52.5709 64.3538 48.39C69.0523 52.6883 71.9994 58.869 71.9994 65.7374Z" fill="#E49D1B"/>
<path d="M48.5 87.1471C36.6936 87.1471 27.0896 77.5431 27.0896 65.7367C27.0896 53.9305 36.6936 44.3265 48.5 44.3265C60.3062 44.3265 69.9102 53.9305 69.9102 65.7367C69.9102 77.5431 60.3062 87.1471 48.5 87.1471Z" fill="#E49D1B"/>
<path d="M68.6002 65.7364C68.6002 76.8199 59.5842 85.8375 48.5005 85.8375C45.357 85.8375 42.3802 85.1128 39.7291 83.821C36.9622 82.4737 34.5496 80.511 32.6696 78.1103C31.8113 77.015 31.0641 75.8282 30.4444 74.5662C29.136 71.9001 28.3992 68.9022 28.3992 65.7364C28.3992 63.3882 28.8046 61.1346 29.5471 59.0385C31.7841 52.7248 37.0927 47.8527 43.6661 46.2248C45.2146 45.8406 46.8351 45.6366 48.5005 45.6366C52.2079 45.6366 55.6829 46.645 58.6675 48.4019C59.9982 49.1865 61.2315 50.1185 62.345 51.1777C64.4442 53.1748 66.1126 55.619 67.1956 58.3572C68.102 60.6424 68.6002 63.1316 68.6002 65.7364Z" fill="#F7B019"/>
<path d="M58.6675 48.4021L30.4444 74.5664C29.136 71.9003 28.3992 68.9024 28.3992 65.7366C28.3992 63.3884 28.8046 61.1348 29.5471 59.0387L43.6661 46.225C45.2146 45.8408 46.8351 45.6368 48.5005 45.6368C52.2079 45.6368 55.6829 46.6452 58.6675 48.4021Z" fill="#FBC035"/>
<path d="M67.1955 58.3573L39.729 83.8212C36.9621 82.4739 34.5495 80.5112 32.6694 78.1105L62.3449 51.1779C64.4441 53.1749 66.1124 55.6192 67.1955 58.3573Z" fill="#FBC035"/>
<path d="M48.5003 39.9604C48.5003 40.2463 48.315 40.4779 48.0863 40.4779C47.8576 40.4779 47.6721 40.2463 47.6721 39.9604C47.6721 39.6745 47.8576 39.4427 48.0863 39.4427C48.315 39.4427 48.5003 39.6745 48.5003 39.9604Z" fill="#F5B219"/>
</svg>
