<svg width="98" height="92" viewBox="0 0 98 92" fill="none" xmlns="http://www.w3.org/2000/svg">
<g filter="url(#filter0_i_214_206)">
<path d="M87.21 52.3468C87.21 71.1601 71.9581 86.4114 53.1455 86.4114C34.3319 86.4114 19.0811 71.1601 19.0811 52.3468C19.0811 33.5336 34.3319 18.2825 53.1455 18.2825C71.9581 18.2825 87.21 33.5336 87.21 52.3468Z" fill="white"/>
<path d="M57.6524 6.38792H48.6384C48.0103 6.38792 47.5007 6.89744 47.5007 7.52463V10.5409C47.5007 11.1691 48.0103 11.6776 48.6384 11.6776H50.1471V14.4995H56.1427V11.6776H57.6524C58.2805 11.6776 58.7891 11.1691 58.7891 10.5409V7.52463C58.7891 6.89744 58.2805 6.38792 57.6524 6.38792Z" fill="#FAB72D"/>
<path d="M86.6174 6.83661C77.4001 0.080158 66.9942 -1.39557 63.3747 3.54215L62.1911 5.15647C61.4442 6.17652 61.7065 7.61336 62.7664 8.30237C65.1116 9.82696 69.5159 12.7734 75.7598 17.2974L72.6558 21.5322L76.6283 24.4446L79.7343 20.2085C86.0251 24.8693 90.218 28.2291 92.3977 30.0234C93.3739 30.827 94.8237 30.6448 95.5715 29.6252L96.7551 28.0107C100.374 23.0736 95.8348 13.5941 86.6174 6.83661Z" fill="#FAB72D"/>
<path d="M19.6723 6.83661C28.8896 0.080158 39.2965 -1.39557 42.9151 3.54215L44.0986 5.15647C44.8465 6.17652 44.5832 7.61336 43.5233 8.30237C41.1781 9.82696 36.7738 12.7734 30.5299 17.2974L33.6349 21.5322L29.6614 24.4446L26.5564 20.2085C20.2656 24.8693 16.0727 28.2291 13.893 30.0234C12.9168 30.827 11.466 30.6448 10.7192 29.6252L9.53562 28.0107C5.9161 23.0736 10.455 13.5941 19.6723 6.83661Z" fill="#FAB72D"/>
<path d="M53.1456 13.5421C31.7136 13.5421 14.3408 30.9155 14.3408 52.3468C14.3408 73.7779 31.7136 91.1516 53.1456 91.1516C74.5766 91.1516 91.9503 73.7779 91.9503 52.3468C91.9503 30.9155 74.5766 13.5421 53.1456 13.5421ZM53.1456 21.1507C57.3604 21.1507 61.4446 21.9745 65.2854 23.5991C68.9997 25.17 72.337 27.4204 75.2037 30.2879C78.0714 33.1553 80.3219 36.4923 81.8934 40.2062C83.5177 44.0473 84.3413 48.132 84.3413 52.3468C84.3413 56.5616 83.5177 60.6463 81.8934 64.4874C80.3219 68.2012 78.0714 71.5383 75.2037 74.4061C72.337 77.2728 68.9997 79.5233 65.2854 81.0947C61.4446 82.719 57.3604 83.5426 53.1456 83.5426C48.9308 83.5426 44.8456 82.719 41.0047 81.0947C37.2904 79.5233 33.9541 77.2728 31.0864 74.4061C28.2187 71.5383 25.9682 68.2012 24.3977 64.4874C22.7734 60.6463 21.9498 56.5616 21.9498 52.3468C21.9498 48.132 22.7734 44.0473 24.3977 40.2062C25.9682 36.4923 28.2187 33.1553 31.0864 30.2879C33.9541 27.4204 37.2904 25.17 41.0047 23.5991C44.8456 21.9745 48.9308 21.1507 53.1456 21.1507Z" fill="#E9323F"/>
<path d="M53.1455 30.251C52.2102 30.251 51.4524 29.493 51.4524 28.558V27.3536C51.4524 26.4185 52.2102 25.6605 53.1455 25.6605C54.0808 25.6605 54.8386 26.4185 54.8386 27.3536V28.558C54.8386 29.493 54.0808 30.251 53.1455 30.251Z" fill="#B5B7B5"/>
<path d="M29.3561 54.0398H28.1516C27.2163 54.0398 26.4585 53.2818 26.4585 52.3468C26.4585 51.4117 27.2163 50.6537 28.1516 50.6537H29.3561C30.2914 50.6537 31.0492 51.4117 31.0492 52.3468C31.0492 53.2818 30.2914 54.0398 29.3561 54.0398Z" fill="#B5B7B5"/>
<path d="M53.1455 79.0327C52.2102 79.0327 51.4524 78.2749 51.4524 77.3396V76.1351C51.4524 75.2008 52.2102 74.443 53.1455 74.443C54.0808 74.443 54.8386 75.2008 54.8386 76.1351V77.3396C54.8386 78.2749 54.0808 79.0327 53.1455 79.0327Z" fill="#B5B7B5"/>
<path d="M78.1381 54.0398H76.9336C75.9993 54.0398 75.2405 53.2818 75.2405 52.3468C75.2405 51.4117 75.9993 50.6537 76.9336 50.6537H78.1381C79.0734 50.6537 79.8312 51.4117 79.8312 52.3468C79.8312 53.2818 79.0734 54.0398 78.1381 54.0398Z" fill="#B5B7B5"/>
<path d="M37.5217 36.7227V36.7228C36.8596 37.3839 35.7877 37.3839 35.1267 36.7228L34.2751 35.8711C33.614 35.2099 33.614 34.1379 34.2751 33.4767C34.9362 32.8156 36.0081 32.8156 36.6692 33.4767L37.5217 34.3284C38.1828 34.9896 38.1828 36.0616 37.5217 36.7227Z" fill="#B5B7B5"/>
<path d="M37.5217 70.3652L36.6692 71.2168C36.0081 71.878 34.9362 71.878 34.2751 71.2168C33.614 70.5556 33.614 69.4837 34.2751 68.8225L35.1267 67.9708C35.7877 67.3096 36.8596 67.3096 37.5217 67.9708C38.1828 68.632 38.1828 69.704 37.5217 70.3652Z" fill="#B5B7B5"/>
<path d="M72.0149 71.2168C71.3538 71.878 70.2819 71.878 69.6208 71.2168L68.7693 70.3652C68.1082 69.704 68.1082 68.632 68.7693 67.9708C69.4303 67.3096 70.5022 67.3096 71.1633 67.9708L72.0149 68.8225C72.676 69.4837 72.676 70.5556 72.0149 71.2168Z" fill="#B5B7B5"/>
<path d="M72.0149 35.8711L71.1633 36.7228C70.5022 37.3839 69.4303 37.3839 68.7693 36.7228V36.7227C68.1082 36.0616 68.1082 34.9896 68.7693 34.3284L69.6208 33.4767C70.2819 32.8156 71.3538 32.8156 72.0149 33.4767C72.676 34.1379 72.676 35.2099 72.0149 35.8711Z" fill="#B5B7B5"/>
<path d="M65.2653 59.6681C65.027 59.6681 64.7847 59.6173 64.5534 59.5102L52.4324 53.8824C51.6308 53.5104 51.2499 52.5848 51.558 51.7567L60.179 28.5807C60.5041 27.7044 61.4793 27.2582 62.3557 27.5841C63.2322 27.9102 63.6779 28.8848 63.3518 29.7612L55.2772 51.4703L65.9792 56.439C66.8278 56.8328 67.1957 57.8395 66.8019 58.6876C66.5157 59.3049 65.9035 59.6681 65.2653 59.6681Z" fill="#262B2F"/>
</g>
<g filter="url(#filter1_i_214_206)">
<path d="M17.3329 81.7269C18.0581 83.1494 20.0905 83.1494 20.8157 81.7269L34.1441 55.5824C34.807 54.282 33.8624 52.7401 32.4027 52.7401H5.74587C4.28618 52.7401 3.34153 54.282 4.0045 55.5824L17.3329 81.7269Z" fill="#E9323F"/>
</g>
<defs>
<filter id="filter0_i_214_206" x="8.29028" y="0.622803" width="89.7097" height="90.5288" filterUnits="userSpaceOnUse" color-interpolation-filters="sRGB">
<feFlood flood-opacity="0" result="BackgroundImageFix"/>
<feBlend mode="normal" in="SourceGraphic" in2="BackgroundImageFix" result="shape"/>
<feColorMatrix in="SourceAlpha" type="matrix" values="0 0 0 0 0 0 0 0 0 0 0 0 0 0 0 0 0 0 127 0" result="hardAlpha"/>
<feOffset dy="-1.79481"/>
<feComposite in2="hardAlpha" operator="arithmetic" k2="-1" k3="1"/>
<feColorMatrix type="matrix" values="0 0 0 0 0 0 0 0 0 0 0 0 0 0 0 0 0 0 0.25 0"/>
<feBlend mode="normal" in2="shape" result="effect1_innerShadow_214_206"/>
</filter>
<filter id="filter1_i_214_206" x="3.78857" y="52.7401" width="30.5713" height="30.0538" filterUnits="userSpaceOnUse" color-interpolation-filters="sRGB">
<feFlood flood-opacity="0" result="BackgroundImageFix"/>
<feBlend mode="normal" in="SourceGraphic" in2="BackgroundImageFix" result="shape"/>
<feColorMatrix in="SourceAlpha" type="matrix" values="0 0 0 0 0 0 0 0 0 0 0 0 0 0 0 0 0 0 127 0" result="hardAlpha"/>
<feOffset dx="-0.741403"/>
<feComposite in2="hardAlpha" operator="arithmetic" k2="-1" k3="1"/>
<feColorMatrix type="matrix" values="0 0 0 0 1 0 0 0 0 1 0 0 0 0 1 0 0 0 1 0"/>
<feBlend mode="normal" in2="shape" result="effect1_innerShadow_214_206"/>
</filter>
</defs>
</svg>
