<svg width="255" height="255" viewBox="0 0 255 255" fill="none" xmlns="http://www.w3.org/2000/svg">
<path d="M0.18335 140.653C0.18335 77.88 51.0656 26.9999 113.832 26.9999C176.599 26.9999 227.48 77.88 227.48 140.653C227.48 203.417 176.599 254.299 113.832 254.299C51.0656 254.299 0.18335 203.417 0.18335 140.653Z" fill="#FFD05D"/>
<path d="M173.291 43.6533C184.608 61.32 191.171 82.3333 191.171 104.867C191.171 167.64 140.29 218.516 77.5229 218.516C55.7242 218.516 35.3615 212.375 18.0642 201.732C38.2615 233.267 73.6055 254.165 113.832 254.165C176.599 254.165 227.48 203.283 227.48 140.52C227.48 99.5466 205.8 63.6533 173.291 43.6533Z" fill="#FDC453"/>
<path d="M15.6296 152.64C15.6296 94.3733 62.8709 47.12 121.146 47.12C155.208 47.12 185.495 63.2667 204.787 88.32C186.567 56.6934 152.416 35.4 113.292 35.4C55.0176 35.4 7.77612 82.64 7.77612 140.907C7.77612 165.12 15.9363 187.427 29.6509 205.231C20.7323 189.747 15.6296 171.787 15.6296 152.64Z" fill="#FFD77F"/>
<path d="M37.4656 151.4C41.7936 189.747 74.3242 219.56 113.832 219.56C153.34 219.56 185.871 189.747 190.199 151.4H37.4656Z" fill="#695342"/>
<path d="M61.0815 198.569C74.8455 211.573 93.3989 219.56 113.832 219.56C133.383 219.56 151.219 212.252 164.782 200.228L164.075 198.577C112.792 173.573 61.7789 198.229 61.0815 198.569Z" fill="#F06669"/>
<path d="M51.53 133.323C50.0953 133.323 48.6766 132.686 47.7273 131.467C46.0913 129.369 46.4673 126.342 48.5659 124.706L64.9566 111.935L48.0139 101.971C45.7206 100.622 44.9553 97.6687 46.3046 95.3753C47.6539 93.0833 50.6059 92.3166 52.8979 93.666L75.9526 107.226C77.3286 108.034 78.214 109.473 78.318 111.065C78.4233 112.657 77.7299 114.197 76.4713 115.179L54.4873 132.306C53.6086 132.993 52.5646 133.323 51.53 133.323Z" fill="#303030"/>
<path d="M174.133 133.323C173.098 133.323 172.055 132.993 171.175 132.306L149.193 115.179C147.934 114.197 147.242 112.657 147.346 111.065C147.45 109.473 148.335 108.034 149.711 107.226L172.765 93.666C175.054 92.3193 178.009 93.082 179.359 95.3753C180.707 97.6687 179.943 100.622 177.649 101.971L160.707 111.935L177.097 124.706C179.197 126.342 179.571 129.369 177.937 131.467C176.986 132.686 175.567 133.323 174.133 133.323Z" fill="#303030"/>
<path d="M189.683 17C183.962 44.9287 162.183 51.5005 162.183 51.5005C162.183 51.5005 183.962 58.0713 189.683 86C195.404 58.0713 217.183 51.5005 217.183 51.5005C217.183 51.5005 195.404 44.9287 189.683 17Z" fill="white"/>
<path d="M216.683 1.25256e-06C213.251 16.5953 200.183 20.5003 200.183 20.5003C200.183 20.5003 213.251 24.4047 216.683 41C220.116 24.4047 233.183 20.5003 233.183 20.5003C233.183 20.5003 220.116 16.5953 216.683 1.25256e-06Z" fill="white"/>
<path d="M242.183 54C239.687 65.7381 230.183 68.5002 230.183 68.5002C230.183 68.5002 239.687 71.2619 242.183 83C244.68 71.2619 254.183 68.5002 254.183 68.5002C254.183 68.5002 244.68 65.7381 242.183 54Z" fill="white"/>
</svg>
