<svg width="229" height="228" viewBox="0 0 229 228" fill="none" xmlns="http://www.w3.org/2000/svg">
<path d="M0.886475 114.15C0.886475 51.3831 51.7687 0.500534 114.535 0.500534C177.302 0.500534 228.183 51.3831 228.183 114.15C228.183 176.916 177.302 227.798 114.535 227.798C51.7687 227.798 0.886475 176.916 0.886475 114.15Z" fill="#FFD05D"/>
<path d="M173.994 17.1511C185.311 34.8205 191.874 55.8258 191.874 78.3671C191.874 141.132 140.993 192.015 78.226 192.015C56.4273 192.015 36.0647 185.874 18.7673 175.231C38.9647 206.764 74.3087 227.663 114.535 227.663C177.302 227.663 228.183 176.782 228.183 114.015C228.183 73.0471 206.503 37.1485 173.994 17.1511Z" fill="#FDC453"/>
<path d="M16.3327 126.14C16.3327 67.8658 63.574 20.6244 121.849 20.6244C155.911 20.6244 186.198 36.7684 205.49 61.8191C187.27 30.1871 153.119 8.89244 113.995 8.89244C55.7207 8.89244 8.47925 56.1337 8.47925 114.408C8.47925 138.62 16.6394 160.924 30.3541 178.73C21.4354 163.247 16.3327 145.29 16.3327 126.14Z" fill="#FFD77F"/>
<path d="M67.9515 138.01C65.0248 135.167 60.3342 138.312 61.8502 142.102C70.2475 163.083 90.7595 177.904 114.741 177.904C138.321 177.904 158.548 163.574 167.2 143.147C168.778 139.42 164.05 136.195 161.145 139.011C144.513 155.138 109.204 178.083 67.9515 138.01Z" fill="#5E4939"/>
<path d="M194.75 71.0336L148.599 74.8562C148.054 74.8562 147.517 74.8842 146.965 74.9402C146.547 74.9909 131.682 76.7643 115.122 77.7336C114.733 77.7563 114.337 77.7563 113.947 77.7336C97.3834 76.7643 82.5141 74.9896 82.0848 74.9376C81.5541 74.8842 81.0154 74.8562 80.4701 74.8562L34.3194 71.0336C25.2408 70.8563 20.2314 75.3215 20.7034 83.2189C20.7221 83.5215 23.9674 101.487 23.9674 101.487C25.0208 107.655 26.1728 112.719 29.9461 118.294C31.9114 121.195 34.8288 123.378 37.9501 124.978C39.5381 125.791 41.2208 126.419 42.9554 126.831C44.4128 127.179 46.0208 127.162 47.5768 127.25C48.9514 127.324 51.1994 127.434 52.5768 127.434H63.1154C66.0741 127.434 67.1461 127.434 67.4941 127.434C72.3701 127.434 77.3341 126.283 81.6981 124.106C88.5541 120.687 92.5234 115.032 95.3714 108.152C98.0608 101.655 103.437 96.7402 109.163 92.9869C112.431 90.8442 116.639 90.8442 119.907 92.9869C122.998 95.0122 125.866 97.3976 128.351 100.135C130.179 102.15 131.658 104.686 133.147 107.008C134.831 109.636 135.911 112.755 137.661 115.428C139.423 118.122 141.379 120.324 144.087 122.182C148.622 125.288 154.107 126.991 159.573 127.363C160.241 127.408 160.909 127.434 161.577 127.434C161.923 127.434 162.997 127.434 165.954 127.434H176.494C177.871 127.434 180.119 127.324 181.494 127.25C183.05 127.162 184.658 127.179 186.114 126.831C187.85 126.419 189.533 125.791 191.119 124.978C194.242 123.378 197.159 121.195 199.123 118.294C202.897 112.719 204.05 107.655 205.103 101.487C205.103 101.487 208.349 83.5215 208.366 83.2189C208.839 75.3215 203.83 70.8563 194.75 71.0336Z" fill="#2D292A"/>
<path d="M161.577 127.434C161.923 127.434 162.997 127.434 165.954 127.434H176.494C177.871 127.434 180.119 127.324 181.494 127.25C183.05 127.162 184.658 127.179 186.114 126.831C187.85 126.419 189.533 125.791 191.119 124.978C194.242 123.378 197.159 121.195 199.123 118.294C202.897 112.719 204.05 107.655 205.103 101.487C205.103 101.487 208.349 83.5215 208.366 83.2189C208.433 82.1162 208.381 81.0896 208.237 80.1242C186.983 113.035 161.201 120.991 144.642 122.531C149.067 125.408 154.325 127.006 159.573 127.363C160.241 127.408 160.909 127.434 161.577 127.434Z" fill="#414042"/>
<path d="M37.9502 124.978C39.5382 125.791 41.2208 126.419 42.9555 126.831C44.4128 127.179 46.0208 127.162 47.5768 127.25C48.9515 127.324 51.1995 127.434 52.5768 127.434H63.1155C66.0742 127.434 67.1462 127.434 67.4942 127.434C72.3702 127.434 77.3342 126.283 81.6982 124.106C88.5542 120.687 92.5235 115.032 95.3715 108.152C96.8008 104.7 98.9995 101.707 101.594 99.0855C70.8555 119.452 45.2768 122.658 34.6875 123.008C35.7248 123.744 36.8235 124.4 37.9502 124.978Z" fill="#414042"/>
</svg>
