<svg width="228" height="228" viewBox="0 0 228 228" fill="none" xmlns="http://www.w3.org/2000/svg">
<path d="M0.593018 114.153C0.593018 51.38 51.473 0.4999 114.233 0.4999C177.006 0.4999 227.886 51.38 227.886 114.153C227.886 176.917 177.006 227.799 114.233 227.799C51.473 227.799 0.593018 176.917 0.593018 114.153Z" fill="#FFD05D"/>
<path d="M173.7 17.1533C185.006 34.82 191.58 55.8333 191.58 78.3666C191.58 141.14 140.686 192.016 77.9264 192.016C56.1264 192.016 35.7664 185.875 18.4597 175.232C38.6597 206.767 74.0064 227.665 114.233 227.665C177.006 227.665 227.886 176.783 227.886 114.02C227.886 73.0466 206.206 37.1533 173.7 17.1533Z" fill="#FDC453"/>
<path d="M16.0327 126.14C16.0327 67.8731 63.2727 20.6198 121.553 20.6198C155.606 20.6198 185.899 36.7665 205.193 61.8198C186.966 30.1931 152.819 8.89975 113.699 8.89975C55.4194 8.89975 8.17944 56.1397 8.17944 114.406C8.17944 138.62 16.3394 160.926 30.0594 178.73C21.1394 163.246 16.0327 145.286 16.0327 126.14Z" fill="#FFD77F"/>
<path d="M67.6465 125.86C64.7265 123.02 60.0331 126.167 61.5531 129.953C69.9531 150.94 90.4598 165.753 114.446 165.753C138.02 165.753 158.246 151.433 166.9 131.006C168.473 127.273 163.753 124.046 160.846 126.86C144.206 142.993 108.9 165.937 67.6465 125.86Z" fill="#5E4939"/>
<path d="M143.58 89.2866C146.793 97.3266 154.46 102.527 163.126 102.527C171.593 102.527 179.207 97.4732 182.513 89.6732C183.14 88.1799 182.646 86.4866 181.3 85.5666C179.966 84.6466 178.207 84.7933 177.047 85.9266C170.74 92.0466 160.767 96.9533 149.073 85.5933C148.42 84.9533 147.567 84.6333 146.713 84.6333C146.06 84.6333 145.406 84.8199 144.833 85.2066C143.486 86.1132 142.967 87.78 143.58 89.2866Z" fill="#303030"/>
<path d="M45.9265 89.2866C49.1531 97.3266 56.8198 102.527 65.4865 102.527C73.9532 102.527 81.5665 97.4732 84.8732 89.6732C85.4999 88.1799 85.0065 86.4999 83.6732 85.5666C82.3265 84.6466 80.5665 84.7933 79.3931 85.9266C73.0998 92.0466 63.1264 96.9533 51.4331 85.5933C50.7798 84.9533 49.9265 84.6333 49.0732 84.6333C48.4199 84.6333 47.7665 84.8199 47.1931 85.2066C45.8465 86.1132 45.3265 87.78 45.9265 89.2866Z" fill="#303030"/>
<path d="M50.5261 129.966C50.5261 140.926 41.6329 149.806 30.6729 149.806C19.7262 149.806 10.8328 140.926 10.8328 129.966C10.8328 119.006 19.7262 110.126 30.6729 110.126C41.6329 110.126 50.5261 119.006 50.5261 129.966Z" fill="#F5A6AC"/>
<path d="M217.633 129.966C217.633 140.926 208.753 149.806 197.793 149.806C186.833 149.806 177.953 140.926 177.953 129.966C177.953 119.006 186.833 110.126 197.793 110.126C208.753 110.126 217.633 119.006 217.633 129.966Z" fill="#F5A6AC"/>
</svg>
