<svg width="228" height="228" viewBox="0 0 228 228" fill="none" xmlns="http://www.w3.org/2000/svg">
<path d="M0.296753 114.153C0.296753 51.38 51.1781 0.4999 113.943 0.4999C176.71 0.4999 227.593 51.38 227.593 114.153C227.593 176.917 176.71 227.799 113.943 227.799C51.1781 227.799 0.296753 176.917 0.296753 114.153Z" fill="#FFD05D"/>
<path d="M173.404 17.1533C184.721 34.82 191.284 55.8333 191.284 78.3666C191.284 141.14 140.402 192.016 77.6357 192.016C55.837 192.016 35.4743 185.875 18.1757 175.232C38.3743 206.767 73.7184 227.665 113.944 227.665C176.71 227.665 227.593 176.783 227.593 114.02C227.593 73.0466 205.913 37.1533 173.404 17.1533Z" fill="#FDC453"/>
<path d="M15.7424 126.14C15.7424 67.8733 62.9837 20.62 121.258 20.62C155.321 20.62 185.608 36.7667 204.9 61.82C186.68 30.1934 152.529 8.89999 113.405 8.89999C55.1304 8.89999 7.88904 56.14 7.88904 114.407C7.88904 138.62 16.0504 160.927 29.7637 178.731C20.845 163.247 15.7424 145.287 15.7424 126.14Z" fill="#FFD77F"/>
<path d="M80.4489 86.5799C80.4489 94.3799 76.6995 100.687 72.0755 100.687C67.4501 100.687 63.7008 94.3799 63.7008 86.5799C63.7008 78.7799 67.4501 72.4598 72.0755 72.4598C76.6995 72.4598 80.4489 78.7799 80.4489 86.5799Z" fill="#303030"/>
<path d="M164.187 86.5799C164.187 94.3799 160.439 100.687 155.814 100.687C151.189 100.687 147.441 94.3799 147.441 86.5799C147.441 78.7799 151.189 72.4598 155.814 72.4598C160.439 72.4598 164.187 78.7799 164.187 86.5799Z" fill="#303030"/>
<path d="M181.075 62.7533C179.851 62.3933 178.662 62.0599 177.5 61.7399C174.946 61.0199 172.534 60.3532 170.205 59.5399C166.721 58.3666 163.589 57.0332 160.629 55.4732C157.514 53.8199 154.683 51.98 151.973 49.8467C149.014 47.5533 146.266 44.8732 143.737 42.2999C143.593 42.1532 143.374 42.1132 143.188 42.2066C143 42.2866 142.882 42.4732 142.893 42.6732C143.082 46.5532 144.616 50.5666 147.333 54.2732C149.816 57.6332 153.14 60.46 156.946 62.4467C160.528 64.34 164.533 65.4866 168.564 65.7933C168.72 65.8066 168.876 65.82 169.03 65.82C173.545 66.06 177.622 65.3399 181.148 63.6732C181.333 63.5799 181.445 63.3933 181.429 63.1933C181.413 62.9799 181.271 62.8066 181.075 62.7533Z" fill="#414042"/>
<path d="M46.8143 62.7533C48.0369 62.3933 49.2263 62.0599 50.3889 61.7399C52.9423 61.0199 55.3543 60.3532 57.685 59.5399C61.1676 58.3666 64.3009 57.0332 67.2609 55.4732C70.3756 53.8199 73.2063 51.98 75.9156 49.8467C78.8756 47.5533 81.6236 44.8732 84.1516 42.2999C84.2956 42.1532 84.5143 42.1132 84.7023 42.2066C84.889 42.2866 85.0063 42.4732 84.9969 42.6732C84.8076 46.5532 83.2729 50.5666 80.5556 54.2732C78.0743 57.6332 74.7489 60.46 70.9423 62.4467C67.3609 64.34 63.3556 65.4866 59.3263 65.7933C59.1703 65.8066 59.0143 65.82 58.8583 65.82C54.3436 66.06 50.2676 65.3399 46.7423 63.6732C46.5556 63.5799 46.4436 63.3933 46.4596 63.1933C46.4756 62.9799 46.6169 62.8066 46.8143 62.7533Z" fill="#414042"/>
<path d="M137.937 131.38C131.47 125.78 122.706 122.62 113.941 122.793C105.32 122.82 96.6356 125.967 90.1023 131.433C86.8063 134.22 84.0542 137.62 82.1289 141.3C80.1022 145.287 79.0529 149.313 79.0103 153.247C78.9996 154.193 79.5929 155.033 80.4836 155.34C81.3742 155.647 82.3609 155.353 82.9369 154.607C85.2902 151.567 87.5236 149.153 89.7516 147.22C92.1516 145.193 94.7036 143.487 97.3303 142.167C102.566 139.553 108.345 138.153 114.053 138.127C119.91 138.087 125.458 139.407 130.572 142.06C135.841 144.767 140.676 148.98 144.941 154.593C145.362 155.153 146.016 155.46 146.688 155.46C146.926 155.46 147.168 155.42 147.402 155.34C148.298 155.033 148.893 154.18 148.88 153.233C148.757 145.313 144.662 137.14 137.937 131.38Z" fill="#5E4939"/>
<path d="M165.831 108.02C132.163 146.513 135.901 168.597 135.901 168.597C135.901 185.127 149.301 198.527 165.831 198.527C182.361 198.527 195.761 185.127 195.761 168.597C195.761 168.597 199.498 146.513 165.831 108.02Z" fill="#7CC4E8"/>
<path d="M143.581 188.611C149.06 194.697 156.997 198.527 165.832 198.527C182.36 198.527 195.761 185.127 195.761 168.597C195.761 168.597 197.318 159.313 189.254 142.3C183.301 181.096 158.929 188.16 143.581 188.611Z" fill="#62BBE8"/>
</svg>
