<svg width="228" height="228" viewBox="0 0 228 228" fill="none" xmlns="http://www.w3.org/2000/svg">
<path d="M0.000267272 114.393C-0.134399 51.6335 50.6376 0.633445 113.404 0.500111C176.17 0.366778 227.162 51.1401 227.296 113.9C227.432 176.672 176.659 227.664 113.894 227.799C51.127 227.935 0.136267 177.163 0.000267272 114.393Z" fill="#FFD05D"/>
<path d="M172.899 17.0202C184.255 34.6735 190.862 55.6601 190.911 78.2068C191.046 140.967 140.274 191.959 77.507 192.095C55.7084 192.141 35.3324 186.043 18.0125 175.44C38.2778 206.928 73.6671 227.752 113.892 227.666C176.659 227.53 227.431 176.539 227.296 113.767C227.208 72.8068 205.451 36.9535 172.899 17.0202Z" fill="#FDC453"/>
<path d="M15.4724 126.354C15.3471 68.0735 62.4858 20.7401 120.76 20.6068C154.823 20.5401 185.144 36.6202 204.491 61.6202C186.202 30.0335 152.006 8.80681 112.882 8.90014C54.6071 9.02014 7.46842 56.3668 7.59376 114.633C7.64576 138.847 15.8551 161.14 29.6071 178.912C20.6551 163.447 15.5137 145.5 15.4724 126.354Z" fill="#FFD77F"/>
<path d="M134.171 141.247C134.171 160.46 124.983 176.035 113.648 176.035C102.314 176.035 93.1257 160.46 93.1257 141.247C93.1257 122.033 102.314 106.447 113.648 106.447C124.983 106.447 134.171 122.033 134.171 141.247Z" fill="#695342"/>
<path d="M130.971 159.887C115.999 151.66 103.807 156.327 96.7576 160.993C100.46 170.08 106.643 176.035 113.648 176.035C120.935 176.035 127.33 169.592 130.971 159.887Z" fill="#F06669"/>
<path d="M78.5162 91.5535L48.6069 110.593L49.3416 207.859C58.2362 213.975 68.0429 218.855 78.5162 222.256V91.5535Z" fill="#7CC4E8"/>
<path d="M148.826 91.5535L178.736 110.593L178 207.859C169.106 213.975 159.3 218.855 148.826 222.256V91.5535Z" fill="#7CC4E8"/>
<path d="M52.3469 113.98C50.9123 113.98 49.4936 113.34 48.5443 112.114C46.9083 110.02 47.2843 106.994 49.3829 105.354L65.775 92.5802L48.831 82.6202C46.5377 81.2735 45.7723 78.3135 47.1203 76.0202C48.471 73.7269 51.423 72.9669 53.715 74.3136L76.771 87.8735C78.1456 88.6868 79.0309 90.1269 79.1349 91.7136C79.2389 93.3136 78.547 94.8468 77.2883 95.8335L55.3043 112.954C54.4256 113.647 53.3816 113.98 52.3469 113.98Z" fill="#303030"/>
<path d="M174.949 113.98C173.915 113.98 172.872 113.647 171.992 112.954L150.009 95.8335C148.751 94.8468 148.059 93.3136 148.163 91.7136C148.267 90.1269 149.152 88.6868 150.528 87.8735L173.581 74.3136C175.871 72.9669 178.825 73.7269 180.176 76.0202C181.525 78.3135 180.759 81.2735 178.465 82.6202L161.524 92.5802L177.913 105.354C180.013 106.994 180.388 110.02 178.753 112.114C177.803 113.34 176.384 113.98 174.949 113.98Z" fill="#303030"/>
</svg>
